solid CATIA STL
  facet normal  -0.000000e+000  0.000000e+000  1.000000e+000
    outer loop
      vertex  0.000000e+000  0.000000e+000 -4.201912e+001
      vertex -6.263932e+000 -6.195774e+000 -4.201912e+001
      vertex -4.263932e+000 -7.648859e+000 -4.201912e+001
    endloop
  endfacet
  facet normal  0.000000e+000  0.000000e+000  1.000000e+000
    outer loop
      vertex -1.500000e+001  0.000000e+000 -4.201912e+001
      vertex -1.500000e+001 -2.000000e+001 -4.201912e+001
      vertex -1.073607e+001 -7.648859e+000 -4.201912e+001
    endloop
  endfacet
  facet normal  0.000000e+000  -0.000000e+000  1.000000e+000
    outer loop
      vertex -1.500000e+001  0.000000e+000 -4.201912e+001
      vertex -1.073607e+001 -7.648859e+000 -4.201912e+001
      vertex -8.736068e+000 -6.195774e+000 -4.201912e+001
    endloop
  endfacet
  facet normal  0.000000e+000  -0.000000e+000  9.999999e-001
    outer loop
      vertex -1.500000e+001  0.000000e+000 -4.201912e+001
      vertex -8.736068e+000 -6.195774e+000 -4.201912e+001
      vertex -6.263932e+000 -6.195774e+000 -4.201912e+001
    endloop
  endfacet
  facet normal  0.000000e+000  -0.000000e+000  9.999999e-001
    outer loop
      vertex -1.500000e+001  0.000000e+000 -4.201912e+001
      vertex -6.263932e+000 -6.195774e+000 -4.201912e+001
      vertex  0.000000e+000  0.000000e+000 -4.201912e+001
    endloop
  endfacet
  facet normal  0.000000e+000  0.000000e+000  1.000000e+000
    outer loop
      vertex  0.000000e+000 -2.000000e+001 -4.201912e+001
      vertex  0.000000e+000  0.000000e+000 -4.201912e+001
      vertex -4.263932e+000 -7.648859e+000 -4.201912e+001
    endloop
  endfacet
  facet normal  0.000000e+000  0.000000e+000  1.000000e+000
    outer loop
      vertex  0.000000e+000 -2.000000e+001 -4.201912e+001
      vertex -4.263932e+000 -7.648859e+000 -4.201912e+001
      vertex -3.500000e+000 -1.000000e+001 -4.201912e+001
    endloop
  endfacet
  facet normal  0.000000e+000  0.000000e+000  9.999999e-001
    outer loop
      vertex  0.000000e+000 -2.000000e+001 -4.201912e+001
      vertex -3.500000e+000 -1.000000e+001 -4.201912e+001
      vertex -4.263932e+000 -1.235114e+001 -4.201912e+001
    endloop
  endfacet
  facet normal  0.000000e+000  0.000000e+000  1.000000e+000
    outer loop
      vertex  0.000000e+000 -2.000000e+001 -4.201912e+001
      vertex -4.263932e+000 -1.235114e+001 -4.201912e+001
      vertex -6.263932e+000 -1.380423e+001 -4.201912e+001
    endloop
  endfacet
  facet normal  0.000000e+000  0.000000e+000  9.999999e-001
    outer loop
      vertex  0.000000e+000 -2.000000e+001 -4.201912e+001
      vertex -6.263932e+000 -1.380423e+001 -4.201912e+001
      vertex -8.736068e+000 -1.380423e+001 -4.201912e+001
    endloop
  endfacet
  facet normal  0.000000e+000  0.000000e+000  9.999999e-001
    outer loop
      vertex  0.000000e+000 -2.000000e+001 -4.201912e+001
      vertex -8.736068e+000 -1.380423e+001 -4.201912e+001
      vertex -1.500000e+001 -2.000000e+001 -4.201912e+001
    endloop
  endfacet
  facet normal  0.000000e+000  0.000000e+000  1.000000e+000
    outer loop
      vertex -1.500000e+001 -2.000000e+001 -4.201912e+001
      vertex -8.736068e+000 -1.380423e+001 -4.201912e+001
      vertex -1.073607e+001 -1.235114e+001 -4.201912e+001
    endloop
  endfacet
  facet normal  0.000000e+000  0.000000e+000  1.000000e+000
    outer loop
      vertex -1.500000e+001 -2.000000e+001 -4.201912e+001
      vertex -1.073607e+001 -1.235114e+001 -4.201912e+001
      vertex -1.150000e+001 -1.000000e+001 -4.201912e+001
    endloop
  endfacet
  facet normal  0.000000e+000  -0.000000e+000  1.000000e+000
    outer loop
      vertex -1.500000e+001 -2.000000e+001 -4.201912e+001
      vertex -1.150000e+001 -1.000000e+001 -4.201912e+001
      vertex -1.073607e+001 -7.648859e+000 -4.201912e+001
    endloop
  endfacet
  facet normal  -0.000000e+000  0.000000e+000 -9.999999e-001
    outer loop
      vertex -1.500000e+001  0.000000e+000 -4.901912e+001
      vertex  0.000000e+000  0.000000e+000 -4.901912e+001
      vertex -6.263932e+000 -6.195774e+000 -4.901912e+001
    endloop
  endfacet
  facet normal  0.000000e+000  0.000000e+000 -9.999999e-001
    outer loop
      vertex -1.500000e+001  0.000000e+000 -4.901912e+001
      vertex -6.263932e+000 -6.195774e+000 -4.901912e+001
      vertex -8.736068e+000 -6.195774e+000 -4.901912e+001
    endloop
  endfacet
  facet normal  -0.000000e+000  0.000000e+000 -1.000000e+000
    outer loop
      vertex -1.500000e+001  0.000000e+000 -4.901912e+001
      vertex -8.736068e+000 -6.195774e+000 -4.901912e+001
      vertex -1.073607e+001 -7.648859e+000 -4.901912e+001
    endloop
  endfacet
  facet normal  -0.000000e+000  0.000000e+000 -1.000000e+000
    outer loop
      vertex -1.500000e+001  0.000000e+000 -4.901912e+001
      vertex -1.073607e+001 -7.648859e+000 -4.901912e+001
      vertex -1.150000e+001 -1.000000e+001 -4.901912e+001
    endloop
  endfacet
  facet normal  0.000000e+000  0.000000e+000 -1.000000e+000
    outer loop
      vertex -1.500000e+001 -2.000000e+001 -4.901912e+001
      vertex -1.500000e+001  0.000000e+000 -4.901912e+001
      vertex -1.150000e+001 -1.000000e+001 -4.901912e+001
    endloop
  endfacet
  facet normal  0.000000e+000  -0.000000e+000 -9.999999e-001
    outer loop
      vertex -1.500000e+001 -2.000000e+001 -4.901912e+001
      vertex -1.150000e+001 -1.000000e+001 -4.901912e+001
      vertex -1.073607e+001 -1.235114e+001 -4.901912e+001
    endloop
  endfacet
  facet normal  0.000000e+000  -0.000000e+000 -1.000000e+000
    outer loop
      vertex -1.500000e+001 -2.000000e+001 -4.901912e+001
      vertex -1.073607e+001 -1.235114e+001 -4.901912e+001
      vertex -8.736068e+000 -1.380423e+001 -4.901912e+001
    endloop
  endfacet
  facet normal  0.000000e+000  -0.000000e+000 -9.999999e-001
    outer loop
      vertex -1.500000e+001 -2.000000e+001 -4.901912e+001
      vertex -8.736068e+000 -1.380423e+001 -4.901912e+001
      vertex -6.263932e+000 -1.380423e+001 -4.901912e+001
    endloop
  endfacet
  facet normal  0.000000e+000  -0.000000e+000 -9.999999e-001
    outer loop
      vertex -1.500000e+001 -2.000000e+001 -4.901912e+001
      vertex -6.263932e+000 -1.380423e+001 -4.901912e+001
      vertex  1.500000e+001 -2.000000e+001 -4.901912e+001
    endloop
  endfacet
  facet normal  0.000000e+000  0.000000e+000 -1.000000e+000
    outer loop
      vertex  0.000000e+000  0.000000e+000 -4.901912e+001
      vertex  1.500000e+001  4.200651e-016 -4.901912e+001
      vertex -3.500000e+000 -1.000000e+001 -4.901912e+001
    endloop
  endfacet
  facet normal  0.000000e+000  0.000000e+000 -9.999999e-001
    outer loop
      vertex  0.000000e+000  0.000000e+000 -4.901912e+001
      vertex -3.500000e+000 -1.000000e+001 -4.901912e+001
      vertex -4.263932e+000 -7.648859e+000 -4.901912e+001
    endloop
  endfacet
  facet normal  0.000000e+000  0.000000e+000 -1.000000e+000
    outer loop
      vertex  0.000000e+000  0.000000e+000 -4.901912e+001
      vertex -4.263932e+000 -7.648859e+000 -4.901912e+001
      vertex -6.263932e+000 -6.195774e+000 -4.901912e+001
    endloop
  endfacet
  facet normal  0.000000e+000  0.000000e+000 -1.000000e+000
    outer loop
      vertex  1.500000e+001 -2.000000e+001 -4.901912e+001
      vertex -6.263932e+000 -1.380423e+001 -4.901912e+001
      vertex -4.263932e+000 -1.235114e+001 -4.901912e+001
    endloop
  endfacet
  facet normal  0.000000e+000  0.000000e+000 -1.000000e+000
    outer loop
      vertex  1.500000e+001 -2.000000e+001 -4.901912e+001
      vertex -4.263932e+000 -1.235114e+001 -4.901912e+001
      vertex -3.500000e+000 -1.000000e+001 -4.901912e+001
    endloop
  endfacet
  facet normal  0.000000e+000  0.000000e+000 -1.000000e+000
    outer loop
      vertex  1.500000e+001 -2.000000e+001 -4.901912e+001
      vertex -3.500000e+000 -1.000000e+001 -4.901912e+001
      vertex  1.500000e+001  4.200651e-016 -4.901912e+001
    endloop
  endfacet
  facet normal  5.877852e-001 -8.090170e-001  0.000000e+000
    outer loop
      vertex -8.736068e+000 -6.195774e+000 -4.901912e+001
      vertex -1.073607e+001 -7.648859e+000 -4.201912e+001
      vertex -1.073607e+001 -7.648859e+000 -4.901912e+001
    endloop
  endfacet
  facet normal  9.510565e-001 -3.090171e-001  0.000000e+000
    outer loop
      vertex -1.073607e+001 -7.648859e+000 -4.901912e+001
      vertex -1.073607e+001 -7.648859e+000 -4.201912e+001
      vertex -1.150000e+001 -1.000000e+001 -4.201912e+001
    endloop
  endfacet
  facet normal  9.510565e-001 -3.090171e-001  0.000000e+000
    outer loop
      vertex -1.073607e+001 -7.648859e+000 -4.901912e+001
      vertex -1.150000e+001 -1.000000e+001 -4.201912e+001
      vertex -1.150000e+001 -1.000000e+001 -4.901912e+001
    endloop
  endfacet
  facet normal  5.877852e-001 -8.090170e-001  0.000000e+000
    outer loop
      vertex -1.073607e+001 -7.648859e+000 -4.201912e+001
      vertex -8.736068e+000 -6.195774e+000 -4.901912e+001
      vertex -8.736068e+000 -6.195774e+000 -4.201912e+001
    endloop
  endfacet
  facet normal  0.000000e+000 -1.000000e+000  0.000000e+000
    outer loop
      vertex -8.736068e+000 -6.195774e+000 -4.201912e+001
      vertex -8.736068e+000 -6.195774e+000 -4.901912e+001
      vertex -6.263932e+000 -6.195774e+000 -4.901912e+001
    endloop
  endfacet
  facet normal  0.000000e+000 -1.000000e+000  0.000000e+000
    outer loop
      vertex -8.736068e+000 -6.195774e+000 -4.201912e+001
      vertex -6.263932e+000 -6.195774e+000 -4.901912e+001
      vertex -6.263932e+000 -6.195774e+000 -4.201912e+001
    endloop
  endfacet
  facet normal -5.877852e-001 -8.090170e-001  -0.000000e+000
    outer loop
      vertex -6.263932e+000 -6.195774e+000 -4.201912e+001
      vertex -6.263932e+000 -6.195774e+000 -4.901912e+001
      vertex -4.263932e+000 -7.648859e+000 -4.901912e+001
    endloop
  endfacet
  facet normal -5.877852e-001 -8.090170e-001  0.000000e+000
    outer loop
      vertex -6.263932e+000 -6.195774e+000 -4.201912e+001
      vertex -4.263932e+000 -7.648859e+000 -4.901912e+001
      vertex -4.263932e+000 -7.648859e+000 -4.201912e+001
    endloop
  endfacet
  facet normal -9.510565e-001 -3.090171e-001  -0.000000e+000
    outer loop
      vertex -4.263932e+000 -7.648859e+000 -4.201912e+001
      vertex -4.263932e+000 -7.648859e+000 -4.901912e+001
      vertex -3.500000e+000 -1.000000e+001 -4.901912e+001
    endloop
  endfacet
  facet normal -9.510565e-001 -3.090171e-001  0.000000e+000
    outer loop
      vertex -4.263932e+000 -7.648859e+000 -4.201912e+001
      vertex -3.500000e+000 -1.000000e+001 -4.901912e+001
      vertex -3.500000e+000 -1.000000e+001 -4.201912e+001
    endloop
  endfacet
  facet normal -5.877852e-001  8.090170e-001  0.000000e+000
    outer loop
      vertex -6.263932e+000 -1.380423e+001 -4.901912e+001
      vertex -4.263932e+000 -1.235114e+001 -4.201912e+001
      vertex -4.263932e+000 -1.235114e+001 -4.901912e+001
    endloop
  endfacet
  facet normal -9.510565e-001  3.090171e-001  0.000000e+000
    outer loop
      vertex -4.263932e+000 -1.235114e+001 -4.901912e+001
      vertex -4.263932e+000 -1.235114e+001 -4.201912e+001
      vertex -3.500000e+000 -1.000000e+001 -4.201912e+001
    endloop
  endfacet
  facet normal -9.510565e-001  3.090171e-001  0.000000e+000
    outer loop
      vertex -4.263932e+000 -1.235114e+001 -4.901912e+001
      vertex -3.500000e+000 -1.000000e+001 -4.201912e+001
      vertex -3.500000e+000 -1.000000e+001 -4.901912e+001
    endloop
  endfacet
  facet normal -5.877852e-001  8.090170e-001  0.000000e+000
    outer loop
      vertex -4.263932e+000 -1.235114e+001 -4.201912e+001
      vertex -6.263932e+000 -1.380423e+001 -4.901912e+001
      vertex -6.263932e+000 -1.380423e+001 -4.201912e+001
    endloop
  endfacet
  facet normal  0.000000e+000  1.000000e+000  0.000000e+000
    outer loop
      vertex -6.263932e+000 -1.380423e+001 -4.201912e+001
      vertex -6.263932e+000 -1.380423e+001 -4.901912e+001
      vertex -8.736068e+000 -1.380423e+001 -4.901912e+001
    endloop
  endfacet
  facet normal  0.000000e+000  1.000000e+000  0.000000e+000
    outer loop
      vertex -6.263932e+000 -1.380423e+001 -4.201912e+001
      vertex -8.736068e+000 -1.380423e+001 -4.901912e+001
      vertex -8.736068e+000 -1.380423e+001 -4.201912e+001
    endloop
  endfacet
  facet normal  5.877852e-001  8.090170e-001  0.000000e+000
    outer loop
      vertex -8.736068e+000 -1.380423e+001 -4.201912e+001
      vertex -8.736068e+000 -1.380423e+001 -4.901912e+001
      vertex -1.073607e+001 -1.235114e+001 -4.901912e+001
    endloop
  endfacet
  facet normal  5.877852e-001  8.090170e-001  -0.000000e+000
    outer loop
      vertex -8.736068e+000 -1.380423e+001 -4.201912e+001
      vertex -1.073607e+001 -1.235114e+001 -4.901912e+001
      vertex -1.073607e+001 -1.235114e+001 -4.201912e+001
    endloop
  endfacet
  facet normal  9.510565e-001  3.090171e-001  0.000000e+000
    outer loop
      vertex -1.073607e+001 -1.235114e+001 -4.201912e+001
      vertex -1.073607e+001 -1.235114e+001 -4.901912e+001
      vertex -1.150000e+001 -1.000000e+001 -4.901912e+001
    endloop
  endfacet
  facet normal  9.510565e-001  3.090171e-001  -0.000000e+000
    outer loop
      vertex -1.073607e+001 -1.235114e+001 -4.201912e+001
      vertex -1.150000e+001 -1.000000e+001 -4.901912e+001
      vertex -1.150000e+001 -1.000000e+001 -4.201912e+001
    endloop
  endfacet
  facet normal  0.000000e+000 -4.755512e-001  8.796880e-001
    outer loop
      vertex  1.500000e+001  3.849998e+001  2.677449e+001
      vertex  0.000000e+000  3.849998e+001  2.677449e+001
      vertex  1.500000e+001  0.000000e+000  5.961758e+000
    endloop
  endfacet
  facet normal  0.000000e+000 -4.755512e-001  8.796880e-001
    outer loop
      vertex  1.500000e+001  0.000000e+000  5.961758e+000
      vertex  0.000000e+000  3.849998e+001  2.677449e+001
      vertex  0.000000e+000  0.000000e+000  5.961758e+000
    endloop
  endfacet
  facet normal  0.000000e+000 -1.000000e+000  0.000000e+000
    outer loop
      vertex  1.500000e+001  5.898312e+001  6.937605e+001
      vertex  0.000000e+000  5.898312e+001  6.937605e+001
      vertex  1.500000e+001  5.898312e+001  6.113204e+001
    endloop
  endfacet
  facet normal  0.000000e+000 -1.000000e+000  0.000000e+000
    outer loop
      vertex  1.500000e+001  5.898312e+001  6.113204e+001
      vertex  0.000000e+000  5.898312e+001  6.937605e+001
      vertex  0.000000e+000  5.898312e+001  6.113204e+001
    endloop
  endfacet
  facet normal -1.000000e+000  0.000000e+000  0.000000e+000
    outer loop
      vertex  0.000000e+000  7.302995e+001  5.634391e+001
      vertex  0.000000e+000  7.367365e+001  5.352366e+001
      vertex  0.000000e+000  5.835769e+001  5.417048e+001
    endloop
  endfacet
  facet normal -1.000000e+000  0.000000e+000  0.000000e+000
    outer loop
      vertex  0.000000e+000  7.302995e+001  5.634391e+001
      vertex  0.000000e+000  5.835769e+001  5.417048e+001
      vertex  0.000000e+000  5.898312e+001  6.113204e+001
    endloop
  endfacet
  facet normal -1.000000e+000  0.000000e+000  0.000000e+000
    outer loop
      vertex  0.000000e+000  7.302995e+001  5.634391e+001
      vertex  0.000000e+000  5.898312e+001  6.113204e+001
      vertex  0.000000e+000  5.898312e+001  6.937605e+001
    endloop
  endfacet
  facet normal -1.000000e+000  0.000000e+000  0.000000e+000
    outer loop
      vertex  0.000000e+000  7.302995e+001  5.634391e+001
      vertex  0.000000e+000  5.898312e+001  6.937605e+001
      vertex  0.000000e+000  7.302995e+001  6.937605e+001
    endloop
  endfacet
  facet normal -1.000000e+000  0.000000e+000  0.000000e+000
    outer loop
      vertex  0.000000e+000  1.000768e+002  4.869469e+001
      vertex  0.000000e+000  8.097634e+001  5.000687e+001
      vertex  0.000000e+000  8.358263e+001  5.126200e+001
    endloop
  endfacet
  facet normal -9.999999e-001  0.000000e+000  0.000000e+000
    outer loop
      vertex  0.000000e+000  1.000768e+002  4.869469e+001
      vertex  0.000000e+000  8.358263e+001  5.126200e+001
      vertex  0.000000e+000  8.538625e+001  5.352366e+001
    endloop
  endfacet
  facet normal -1.000000e+000  0.000000e+000  0.000000e+000
    outer loop
      vertex  0.000000e+000  1.000768e+002  4.869469e+001
      vertex  0.000000e+000  8.538625e+001  5.352366e+001
      vertex  0.000000e+000  8.602995e+001  5.634391e+001
    endloop
  endfacet
  facet normal -1.000000e+000  0.000000e+000  0.000000e+000
    outer loop
      vertex  0.000000e+000  1.000768e+002  4.869469e+001
      vertex  0.000000e+000  8.602995e+001  5.634391e+001
      vertex  0.000000e+000  8.602995e+001  6.937605e+001
    endloop
  endfacet
  facet normal -1.000000e+000  0.000000e+000  0.000000e+000
    outer loop
      vertex  0.000000e+000  1.000768e+002  4.869469e+001
      vertex  0.000000e+000  8.602995e+001  6.937605e+001
      vertex  0.000000e+000  1.000768e+002  6.937605e+001
    endloop
  endfacet
  facet normal -9.999999e-001  0.000000e+000  -0.000000e+000
    outer loop
      vertex  0.000000e+000  0.000000e+000  5.961758e+000
      vertex  0.000000e+000  3.849998e+001  2.677449e+001
      vertex  0.000000e+000  6.120785e+001  2.768249e+001
    endloop
  endfacet
  facet normal -1.000000e+000  0.000000e+000  0.000000e+000
    outer loop
      vertex  0.000000e+000  0.000000e+000  5.961758e+000
      vertex  0.000000e+000  6.120785e+001  2.768249e+001
      vertex  0.000000e+000  5.130170e+001  2.153617e+001
    endloop
  endfacet
  facet normal -1.000000e+000  0.000000e+000  0.000000e+000
    outer loop
      vertex  0.000000e+000  0.000000e+000  5.961758e+000
      vertex  0.000000e+000  5.130170e+001  2.153617e+001
      vertex  0.000000e+000  4.219869e+001  1.425301e+001
    endloop
  endfacet
  facet normal -1.000000e+000  0.000000e+000  0.000000e+000
    outer loop
      vertex  0.000000e+000  0.000000e+000  5.961758e+000
      vertex  0.000000e+000  4.219869e+001  1.425301e+001
      vertex  0.000000e+000  3.402860e+001  5.936841e+000
    endloop
  endfacet
  facet normal -1.000000e+000  0.000000e+000  -0.000000e+000
    outer loop
      vertex  0.000000e+000  5.650142e+001  4.743187e+001
      vertex  0.000000e+000  5.835769e+001  5.417048e+001
      vertex  0.000000e+000  7.367365e+001  5.352366e+001
    endloop
  endfacet
  facet normal -1.000000e+000  0.000000e+000  -0.000000e+000
    outer loop
      vertex  0.000000e+000  5.650142e+001  4.743187e+001
      vertex  0.000000e+000  7.367365e+001  5.352366e+001
      vertex  0.000000e+000  7.547727e+001  5.126200e+001
    endloop
  endfacet
  facet normal -1.000000e+000  0.000000e+000  -0.000000e+000
    outer loop
      vertex  0.000000e+000  5.650142e+001  4.743187e+001
      vertex  0.000000e+000  7.547727e+001  5.126200e+001
      vertex  0.000000e+000  7.808356e+001  5.000687e+001
    endloop
  endfacet
  facet normal -1.000000e+000  0.000000e+000  -0.000000e+000
    outer loop
      vertex  0.000000e+000  5.650142e+001  4.743187e+001
      vertex  0.000000e+000  7.808356e+001  5.000687e+001
      vertex  0.000000e+000  8.097634e+001  5.000687e+001
    endloop
  endfacet
  facet normal -1.000000e+000  0.000000e+000  -0.000000e+000
    outer loop
      vertex  0.000000e+000  5.650142e+001  4.743187e+001
      vertex  0.000000e+000  8.097634e+001  5.000687e+001
      vertex  0.000000e+000  1.000768e+002  4.869469e+001
    endloop
  endfacet
  facet normal -1.000000e+000  0.000000e+000  0.000000e+000
    outer loop
      vertex  0.000000e+000  5.650142e+001  4.743187e+001
      vertex  0.000000e+000  1.000768e+002  4.869469e+001
      vertex  0.000000e+000  6.120785e+001  2.768249e+001
    endloop
  endfacet
  facet normal -1.000000e+000  0.000000e+000  0.000000e+000
    outer loop
      vertex  0.000000e+000  6.120785e+001  2.768249e+001
      vertex  0.000000e+000  3.849998e+001  2.677449e+001
      vertex  0.000000e+000  4.432656e+001  3.063526e+001
    endloop
  endfacet
  facet normal -1.000000e+000  0.000000e+000  0.000000e+000
    outer loop
      vertex  0.000000e+000  6.120785e+001  2.768249e+001
      vertex  0.000000e+000  4.432656e+001  3.063526e+001
      vertex  0.000000e+000  4.937168e+001  3.547276e+001
    endloop
  endfacet
  facet normal -9.999999e-001  0.000000e+000  0.000000e+000
    outer loop
      vertex  0.000000e+000  6.120785e+001  2.768249e+001
      vertex  0.000000e+000  4.937168e+001  3.547276e+001
      vertex  0.000000e+000  5.347375e+001  4.113204e+001
    endloop
  endfacet
  facet normal -1.000000e+000  0.000000e+000  0.000000e+000
    outer loop
      vertex  0.000000e+000  6.120785e+001  2.768249e+001
      vertex  0.000000e+000  5.347375e+001  4.113204e+001
      vertex  0.000000e+000  5.650142e+001  4.743187e+001
    endloop
  endfacet
  facet normal -1.000000e+000  0.000000e+000  -0.000000e+000
    outer loop
      vertex  0.000000e+000 -2.000000e+001 -4.201912e+001
      vertex  0.000000e+000  0.000000e+000  5.961758e+000
      vertex  0.000000e+000  3.402860e+001  5.936841e+000
    endloop
  endfacet
  facet normal -1.000000e+000  0.000000e+000  0.000000e+000
    outer loop
      vertex  0.000000e+000 -2.000000e+001 -4.201912e+001
      vertex  0.000000e+000  3.402860e+001  5.936841e+000
      vertex  0.000000e+000  2.690790e+001 -3.293794e+000
    endloop
  endfacet
  facet normal -1.000000e+000  0.000000e+000  0.000000e+000
    outer loop
      vertex  0.000000e+000 -2.000000e+001 -4.201912e+001
      vertex  0.000000e+000  2.690790e+001 -3.293794e+000
      vertex  0.000000e+000  2.093808e+001 -1.330731e+001
    endloop
  endfacet
  facet normal -1.000000e+000  0.000000e+000  0.000000e+000
    outer loop
      vertex  0.000000e+000 -2.000000e+001 -4.201912e+001
      vertex  0.000000e+000  2.093808e+001 -1.330731e+001
      vertex  0.000000e+000  1.620426e+001 -2.396095e+001
    endloop
  endfacet
  facet normal -9.999999e-001  0.000000e+000  0.000000e+000
    outer loop
      vertex  0.000000e+000 -2.000000e+001 -4.201912e+001
      vertex  0.000000e+000  1.620426e+001 -2.396095e+001
      vertex  0.000000e+000  1.277392e+001 -3.510284e+001
    endloop
  endfacet
  facet normal -1.000000e+000  0.000000e+000  0.000000e+000
    outer loop
      vertex  0.000000e+000 -2.000000e+001 -4.201912e+001
      vertex  0.000000e+000  1.277392e+001 -3.510284e+001
      vertex  0.000000e+000  0.000000e+000 -4.201912e+001
    endloop
  endfacet
  facet normal -1.000000e+000  0.000000e+000  0.000000e+000
    outer loop
      vertex  0.000000e+000  1.000000e+001 -5.821137e+001
      vertex  0.000000e+000  0.000000e+000 -4.901912e+001
      vertex  0.000000e+000  1.069596e+001 -4.657416e+001
    endloop
  endfacet
  facet normal -1.000000e+000  -0.000000e+000  0.000000e+000
    outer loop
      vertex  0.000000e+000  1.069596e+001 -4.657416e+001
      vertex  0.000000e+000  0.000000e+000 -4.901912e+001
      vertex  0.000000e+000  0.000000e+000 -4.201912e+001
    endloop
  endfacet
  facet normal -1.000000e+000  0.000000e+000  0.000000e+000
    outer loop
      vertex  0.000000e+000  1.069596e+001 -4.657416e+001
      vertex  0.000000e+000  0.000000e+000 -4.201912e+001
      vertex  0.000000e+000  1.277392e+001 -3.510284e+001
    endloop
  endfacet
  facet normal -1.000000e+000  0.000000e+000  -0.000000e+000
    outer loop
      vertex  0.000000e+000 -9.860761e-032 -1.000000e+002
      vertex  0.000000e+000  0.000000e+000 -4.901912e+001
      vertex  0.000000e+000  1.000000e+001 -1.000000e+002
    endloop
  endfacet
  facet normal -1.000000e+000  0.000000e+000  0.000000e+000
    outer loop
      vertex  0.000000e+000  1.000000e+001 -1.000000e+002
      vertex  0.000000e+000  0.000000e+000 -4.901912e+001
      vertex  0.000000e+000  1.000000e+001 -5.821137e+001
    endloop
  endfacet
  facet normal  1.000000e+000  0.000000e+000  0.000000e+000
    outer loop
      vertex  1.500000e+001  7.302995e+001  5.634391e+001
      vertex  1.500000e+001  7.302995e+001  6.937605e+001
      vertex  1.500000e+001  5.898312e+001  6.937605e+001
    endloop
  endfacet
  facet normal  1.000000e+000  0.000000e+000  0.000000e+000
    outer loop
      vertex  1.500000e+001  7.302995e+001  5.634391e+001
      vertex  1.500000e+001  5.898312e+001  6.937605e+001
      vertex  1.500000e+001  5.898312e+001  6.113204e+001
    endloop
  endfacet
  facet normal  1.000000e+000  0.000000e+000  0.000000e+000
    outer loop
      vertex  1.500000e+001  7.302995e+001  5.634391e+001
      vertex  1.500000e+001  5.898312e+001  6.113204e+001
      vertex  1.500000e+001  5.835769e+001  5.417048e+001
    endloop
  endfacet
  facet normal  1.000000e+000  -0.000000e+000  0.000000e+000
    outer loop
      vertex  1.500000e+001  7.302995e+001  5.634391e+001
      vertex  1.500000e+001  5.835769e+001  5.417048e+001
      vertex  1.500000e+001  7.367365e+001  5.352366e+001
    endloop
  endfacet
  facet normal  1.000000e+000  0.000000e+000  0.000000e+000
    outer loop
      vertex  1.500000e+001  1.000768e+002  4.869469e+001
      vertex  1.500000e+001  1.000768e+002  6.937605e+001
      vertex  1.500000e+001  8.602995e+001  6.937605e+001
    endloop
  endfacet
  facet normal  1.000000e+000  0.000000e+000  0.000000e+000
    outer loop
      vertex  1.500000e+001  1.000768e+002  4.869469e+001
      vertex  1.500000e+001  8.602995e+001  6.937605e+001
      vertex  1.500000e+001  8.602995e+001  5.634391e+001
    endloop
  endfacet
  facet normal  1.000000e+000  0.000000e+000  0.000000e+000
    outer loop
      vertex  1.500000e+001  1.000768e+002  4.869469e+001
      vertex  1.500000e+001  8.602995e+001  5.634391e+001
      vertex  1.500000e+001  8.538625e+001  5.352366e+001
    endloop
  endfacet
  facet normal  1.000000e+000  0.000000e+000  0.000000e+000
    outer loop
      vertex  1.500000e+001  1.000768e+002  4.869469e+001
      vertex  1.500000e+001  8.538625e+001  5.352366e+001
      vertex  1.500000e+001  8.358263e+001  5.126200e+001
    endloop
  endfacet
  facet normal  1.000000e+000  0.000000e+000  0.000000e+000
    outer loop
      vertex  1.500000e+001  1.000768e+002  4.869469e+001
      vertex  1.500000e+001  8.358263e+001  5.126200e+001
      vertex  1.500000e+001  8.097634e+001  5.000687e+001
    endloop
  endfacet
  facet normal  1.000000e+000  0.000000e+000  0.000000e+000
    outer loop
      vertex  1.500000e+001  4.200651e-016 -4.901912e+001
      vertex  1.500000e+001 -9.860761e-032 -1.000000e+002
      vertex  1.500000e+001  1.000000e+001 -1.000000e+002
    endloop
  endfacet
  facet normal  1.000000e+000  0.000000e+000  -0.000000e+000
    outer loop
      vertex  1.500000e+001  4.200651e-016 -4.901912e+001
      vertex  1.500000e+001  1.000000e+001 -1.000000e+002
      vertex  1.500000e+001  1.000000e+001 -5.821137e+001
    endloop
  endfacet
  facet normal  1.000000e+000  0.000000e+000  -0.000000e+000
    outer loop
      vertex  1.500000e+001  4.200651e-016 -4.901912e+001
      vertex  1.500000e+001  1.000000e+001 -5.821137e+001
      vertex  1.500000e+001  1.069596e+001 -4.657416e+001
    endloop
  endfacet
  facet normal  1.000000e+000  0.000000e+000  0.000000e+000
    outer loop
      vertex  1.500000e+001  4.200651e-016 -4.901912e+001
      vertex  1.500000e+001  1.069596e+001 -4.657416e+001
      vertex  1.500000e+001 -2.000000e+001 -4.901912e+001
    endloop
  endfacet
  facet normal  1.000000e+000  0.000000e+000  -0.000000e+000
    outer loop
      vertex  1.500000e+001  0.000000e+000  5.961758e+000
      vertex  1.500000e+001  3.402860e+001  5.936841e+000
      vertex  1.500000e+001  4.219869e+001  1.425301e+001
    endloop
  endfacet
  facet normal  1.000000e+000  0.000000e+000  -0.000000e+000
    outer loop
      vertex  1.500000e+001  0.000000e+000  5.961758e+000
      vertex  1.500000e+001  4.219869e+001  1.425301e+001
      vertex  1.500000e+001  5.130170e+001  2.153617e+001
    endloop
  endfacet
  facet normal  1.000000e+000  0.000000e+000  -0.000000e+000
    outer loop
      vertex  1.500000e+001  0.000000e+000  5.961758e+000
      vertex  1.500000e+001  5.130170e+001  2.153617e+001
      vertex  1.500000e+001  6.120785e+001  2.768249e+001
    endloop
  endfacet
  facet normal  9.999999e-001  0.000000e+000  0.000000e+000
    outer loop
      vertex  1.500000e+001  0.000000e+000  5.961758e+000
      vertex  1.500000e+001  6.120785e+001  2.768249e+001
      vertex  1.500000e+001  3.849998e+001  2.677449e+001
    endloop
  endfacet
  facet normal  1.000000e+000  0.000000e+000  -0.000000e+000
    outer loop
      vertex  1.500000e+001  5.650142e+001  4.743187e+001
      vertex  1.500000e+001  6.120785e+001  2.768249e+001
      vertex  1.500000e+001  1.000768e+002  4.869469e+001
    endloop
  endfacet
  facet normal  1.000000e+000  0.000000e+000  0.000000e+000
    outer loop
      vertex  1.500000e+001  5.650142e+001  4.743187e+001
      vertex  1.500000e+001  1.000768e+002  4.869469e+001
      vertex  1.500000e+001  8.097634e+001  5.000687e+001
    endloop
  endfacet
  facet normal  1.000000e+000  0.000000e+000  0.000000e+000
    outer loop
      vertex  1.500000e+001  5.650142e+001  4.743187e+001
      vertex  1.500000e+001  8.097634e+001  5.000687e+001
      vertex  1.500000e+001  7.808356e+001  5.000687e+001
    endloop
  endfacet
  facet normal  1.000000e+000  0.000000e+000  0.000000e+000
    outer loop
      vertex  1.500000e+001  5.650142e+001  4.743187e+001
      vertex  1.500000e+001  7.808356e+001  5.000687e+001
      vertex  1.500000e+001  7.547727e+001  5.126200e+001
    endloop
  endfacet
  facet normal  1.000000e+000  0.000000e+000  0.000000e+000
    outer loop
      vertex  1.500000e+001  5.650142e+001  4.743187e+001
      vertex  1.500000e+001  7.547727e+001  5.126200e+001
      vertex  1.500000e+001  7.367365e+001  5.352366e+001
    endloop
  endfacet
  facet normal  1.000000e+000  0.000000e+000  0.000000e+000
    outer loop
      vertex  1.500000e+001  5.650142e+001  4.743187e+001
      vertex  1.500000e+001  7.367365e+001  5.352366e+001
      vertex  1.500000e+001  5.835769e+001  5.417048e+001
    endloop
  endfacet
  facet normal  1.000000e+000  0.000000e+000  0.000000e+000
    outer loop
      vertex  1.500000e+001  6.120785e+001  2.768249e+001
      vertex  1.500000e+001  5.650142e+001  4.743187e+001
      vertex  1.500000e+001  5.347375e+001  4.113204e+001
    endloop
  endfacet
  facet normal  9.999999e-001  0.000000e+000  0.000000e+000
    outer loop
      vertex  1.500000e+001  6.120785e+001  2.768249e+001
      vertex  1.500000e+001  5.347375e+001  4.113204e+001
      vertex  1.500000e+001  4.937168e+001  3.547276e+001
    endloop
  endfacet
  facet normal  1.000000e+000  0.000000e+000  0.000000e+000
    outer loop
      vertex  1.500000e+001  6.120785e+001  2.768249e+001
      vertex  1.500000e+001  4.937168e+001  3.547276e+001
      vertex  1.500000e+001  4.432656e+001  3.063526e+001
    endloop
  endfacet
  facet normal  1.000000e+000  0.000000e+000  0.000000e+000
    outer loop
      vertex  1.500000e+001  6.120785e+001  2.768249e+001
      vertex  1.500000e+001  4.432656e+001  3.063526e+001
      vertex  1.500000e+001  3.849998e+001  2.677449e+001
    endloop
  endfacet
  facet normal  9.999999e-001  0.000000e+000  0.000000e+000
    outer loop
      vertex  1.500000e+001 -2.000000e+001 -4.201912e+001
      vertex  1.500000e+001 -2.000000e+001 -4.901912e+001
      vertex  1.500000e+001  1.069596e+001 -4.657416e+001
    endloop
  endfacet
  facet normal  1.000000e+000  0.000000e+000  -0.000000e+000
    outer loop
      vertex  1.500000e+001 -2.000000e+001 -4.201912e+001
      vertex  1.500000e+001  1.069596e+001 -4.657416e+001
      vertex  1.500000e+001  1.277392e+001 -3.510284e+001
    endloop
  endfacet
  facet normal  1.000000e+000  0.000000e+000  -0.000000e+000
    outer loop
      vertex  1.500000e+001 -2.000000e+001 -4.201912e+001
      vertex  1.500000e+001  1.277392e+001 -3.510284e+001
      vertex  1.500000e+001  1.620426e+001 -2.396095e+001
    endloop
  endfacet
  facet normal  1.000000e+000  0.000000e+000  -0.000000e+000
    outer loop
      vertex  1.500000e+001 -2.000000e+001 -4.201912e+001
      vertex  1.500000e+001  1.620426e+001 -2.396095e+001
      vertex  1.500000e+001  2.093808e+001 -1.330731e+001
    endloop
  endfacet
  facet normal  1.000000e+000  0.000000e+000  -0.000000e+000
    outer loop
      vertex  1.500000e+001 -2.000000e+001 -4.201912e+001
      vertex  1.500000e+001  2.093808e+001 -1.330731e+001
      vertex  1.500000e+001  2.690790e+001 -3.293794e+000
    endloop
  endfacet
  facet normal  1.000000e+000  0.000000e+000  -0.000000e+000
    outer loop
      vertex  1.500000e+001 -2.000000e+001 -4.201912e+001
      vertex  1.500000e+001  2.690790e+001 -3.293794e+000
      vertex  1.500000e+001  3.402860e+001  5.936841e+000
    endloop
  endfacet
  facet normal  1.000000e+000  0.000000e+000  0.000000e+000
    outer loop
      vertex  1.500000e+001 -2.000000e+001 -4.201912e+001
      vertex  1.500000e+001  3.402860e+001  5.936841e+000
      vertex  1.500000e+001  0.000000e+000  5.961758e+000
    endloop
  endfacet
  facet normal  0.000000e+000 -8.096719e-001  5.868827e-001
    outer loop
      vertex  1.500000e+001  5.347375e+001  4.113204e+001
      vertex  0.000000e+000  4.937168e+001  3.547276e+001
      vertex  1.500000e+001  4.937168e+001  3.547276e+001
    endloop
  endfacet
  facet normal  0.000000e+000 -6.920984e-001  7.218032e-001
    outer loop
      vertex  1.500000e+001  4.937168e+001  3.547276e+001
      vertex  0.000000e+000  4.937168e+001  3.547276e+001
      vertex  0.000000e+000  4.432656e+001  3.063526e+001
    endloop
  endfacet
  facet normal  0.000000e+000 -6.920984e-001  7.218032e-001
    outer loop
      vertex  1.500000e+001  4.937168e+001  3.547276e+001
      vertex  0.000000e+000  4.432656e+001  3.063526e+001
      vertex  1.500000e+001  4.432656e+001  3.063526e+001
    endloop
  endfacet
  facet normal  0.000000e+000 -5.523587e-001  8.336064e-001
    outer loop
      vertex  1.500000e+001  4.432656e+001  3.063526e+001
      vertex  0.000000e+000  4.432656e+001  3.063526e+001
      vertex  0.000000e+000  3.849998e+001  2.677449e+001
    endloop
  endfacet
  facet normal  0.000000e+000 -5.523587e-001  8.336064e-001
    outer loop
      vertex  1.500000e+001  4.432656e+001  3.063526e+001
      vertex  0.000000e+000  3.849998e+001  2.677449e+001
      vertex  1.500000e+001  3.849998e+001  2.677449e+001
    endloop
  endfacet
  facet normal  0.000000e+000 -8.096719e-001  5.868827e-001
    outer loop
      vertex  0.000000e+000  4.937168e+001  3.547276e+001
      vertex  1.500000e+001  5.347375e+001  4.113204e+001
      vertex  0.000000e+000  5.347375e+001  4.113204e+001
    endloop
  endfacet
  facet normal  0.000000e+000 -9.013141e-001  4.331663e-001
    outer loop
      vertex  0.000000e+000  5.347375e+001  4.113204e+001
      vertex  1.500000e+001  5.347375e+001  4.113204e+001
      vertex  1.500000e+001  5.650142e+001  4.743187e+001
    endloop
  endfacet
  facet normal  0.000000e+000 -9.013141e-001  4.331663e-001
    outer loop
      vertex  0.000000e+000  5.347375e+001  4.113204e+001
      vertex  1.500000e+001  5.650142e+001  4.743187e+001
      vertex  0.000000e+000  5.650142e+001  4.743187e+001
    endloop
  endfacet
  facet normal  0.000000e+000 -9.640899e-001  2.655759e-001
    outer loop
      vertex  0.000000e+000  5.650142e+001  4.743187e+001
      vertex  1.500000e+001  5.650142e+001  4.743187e+001
      vertex  1.500000e+001  5.835769e+001  5.417048e+001
    endloop
  endfacet
  facet normal  0.000000e+000 -9.640899e-001  2.655759e-001
    outer loop
      vertex  0.000000e+000  5.650142e+001  4.743187e+001
      vertex  1.500000e+001  5.835769e+001  5.417048e+001
      vertex  0.000000e+000  5.835769e+001  5.417048e+001
    endloop
  endfacet
  facet normal  0.000000e+000 -9.959887e-001  8.948072e-002
    outer loop
      vertex  0.000000e+000  5.835769e+001  5.417048e+001
      vertex  1.500000e+001  5.835769e+001  5.417048e+001
      vertex  1.500000e+001  5.898312e+001  6.113204e+001
    endloop
  endfacet
  facet normal  0.000000e+000 -9.959887e-001  8.948072e-002
    outer loop
      vertex  0.000000e+000  5.835769e+001  5.417048e+001
      vertex  1.500000e+001  5.898312e+001  6.113204e+001
      vertex  0.000000e+000  5.898312e+001  6.113204e+001
    endloop
  endfacet
  facet normal  0.000000e+000  1.000000e+000  0.000000e+000
    outer loop
      vertex  4.263932e+000  1.000000e+001 -6.235114e+001
      vertex  6.263932e+000  1.000000e+001 -6.380423e+001
      vertex  6.263932e+000  1.000000e+001 -8.619577e+001
    endloop
  endfacet
  facet normal  0.000000e+000  1.000000e+000  -0.000000e+000
    outer loop
      vertex  1.500000e+001  1.000000e+001 -5.821137e+001
      vertex  1.150000e+001  1.000000e+001 -9.000000e+001
      vertex  1.073607e+001  1.000000e+001 -8.764886e+001
    endloop
  endfacet
  facet normal  0.000000e+000  1.000000e+000  -0.000000e+000
    outer loop
      vertex  1.500000e+001  1.000000e+001 -5.821137e+001
      vertex  1.073607e+001  1.000000e+001 -8.764886e+001
      vertex  8.736068e+000  1.000000e+001 -8.619577e+001
    endloop
  endfacet
  facet normal  0.000000e+000  1.000000e+000  0.000000e+000
    outer loop
      vertex  1.500000e+001  1.000000e+001 -5.821137e+001
      vertex  8.736068e+000  1.000000e+001 -8.619577e+001
      vertex  1.073607e+001  1.000000e+001 -6.235114e+001
    endloop
  endfacet
  facet normal  0.000000e+000  1.000000e+000  0.000000e+000
    outer loop
      vertex  1.500000e+001  1.000000e+001 -5.821137e+001
      vertex  1.073607e+001  1.000000e+001 -6.235114e+001
      vertex  1.150000e+001  1.000000e+001 -6.000000e+001
    endloop
  endfacet
  facet normal  0.000000e+000  1.000000e+000  -0.000000e+000
    outer loop
      vertex  1.500000e+001  1.000000e+001 -5.821137e+001
      vertex  1.150000e+001  1.000000e+001 -6.000000e+001
      vertex  1.107782e+001  1.000000e+001 -5.821137e+001
    endloop
  endfacet
  facet normal  0.000000e+000  1.000000e+000  0.000000e+000
    outer loop
      vertex  1.500000e+001  1.000000e+001 -1.000000e+002
      vertex  0.000000e+000  1.000000e+001 -1.000000e+002
      vertex  6.263932e+000  1.000000e+001 -9.380423e+001
    endloop
  endfacet
  facet normal  -0.000000e+000  1.000000e+000  0.000000e+000
    outer loop
      vertex  1.500000e+001  1.000000e+001 -1.000000e+002
      vertex  6.263932e+000  1.000000e+001 -9.380423e+001
      vertex  8.736068e+000  1.000000e+001 -9.380423e+001
    endloop
  endfacet
  facet normal  -0.000000e+000  1.000000e+000  0.000000e+000
    outer loop
      vertex  1.500000e+001  1.000000e+001 -1.000000e+002
      vertex  8.736068e+000  1.000000e+001 -9.380423e+001
      vertex  1.073607e+001  1.000000e+001 -9.235114e+001
    endloop
  endfacet
  facet normal  -0.000000e+000  1.000000e+000  0.000000e+000
    outer loop
      vertex  1.500000e+001  1.000000e+001 -1.000000e+002
      vertex  1.073607e+001  1.000000e+001 -9.235114e+001
      vertex  1.150000e+001  1.000000e+001 -9.000000e+001
    endloop
  endfacet
  facet normal  -0.000000e+000  1.000000e+000  0.000000e+000
    outer loop
      vertex  1.500000e+001  1.000000e+001 -1.000000e+002
      vertex  1.150000e+001  1.000000e+001 -9.000000e+001
      vertex  1.500000e+001  1.000000e+001 -5.821137e+001
    endloop
  endfacet
  facet normal  0.000000e+000  1.000000e+000  0.000000e+000
    outer loop
      vertex  0.000000e+000  1.000000e+001 -5.821137e+001
      vertex  3.922177e+000  1.000000e+001 -5.821137e+001
      vertex  3.500000e+000  1.000000e+001 -6.000000e+001
    endloop
  endfacet
  facet normal  0.000000e+000  1.000000e+000  0.000000e+000
    outer loop
      vertex  0.000000e+000  1.000000e+001 -5.821137e+001
      vertex  3.500000e+000  1.000000e+001 -6.000000e+001
      vertex  4.263932e+000  1.000000e+001 -6.235114e+001
    endloop
  endfacet
  facet normal  0.000000e+000  1.000000e+000  0.000000e+000
    outer loop
      vertex  0.000000e+000  1.000000e+001 -5.821137e+001
      vertex  4.263932e+000  1.000000e+001 -6.235114e+001
      vertex  6.263932e+000  1.000000e+001 -8.619577e+001
    endloop
  endfacet
  facet normal  0.000000e+000  1.000000e+000  0.000000e+000
    outer loop
      vertex  0.000000e+000  1.000000e+001 -5.821137e+001
      vertex  6.263932e+000  1.000000e+001 -8.619577e+001
      vertex  4.263932e+000  1.000000e+001 -8.764886e+001
    endloop
  endfacet
  facet normal  0.000000e+000  1.000000e+000  0.000000e+000
    outer loop
      vertex  0.000000e+000  1.000000e+001 -5.821137e+001
      vertex  4.263932e+000  1.000000e+001 -8.764886e+001
      vertex  3.500000e+000  1.000000e+001 -9.000000e+001
    endloop
  endfacet
  facet normal  0.000000e+000  1.000000e+000  0.000000e+000
    outer loop
      vertex  0.000000e+000  1.000000e+001 -1.000000e+002
      vertex  0.000000e+000  1.000000e+001 -5.821137e+001
      vertex  3.500000e+000  1.000000e+001 -9.000000e+001
    endloop
  endfacet
  facet normal  0.000000e+000  1.000000e+000  0.000000e+000
    outer loop
      vertex  0.000000e+000  1.000000e+001 -1.000000e+002
      vertex  3.500000e+000  1.000000e+001 -9.000000e+001
      vertex  4.263932e+000  1.000000e+001 -9.235114e+001
    endloop
  endfacet
  facet normal  0.000000e+000  1.000000e+000  0.000000e+000
    outer loop
      vertex  0.000000e+000  1.000000e+001 -1.000000e+002
      vertex  4.263932e+000  1.000000e+001 -9.235114e+001
      vertex  6.263932e+000  1.000000e+001 -9.380423e+001
    endloop
  endfacet
  facet normal  0.000000e+000  1.000000e+000  0.000000e+000
    outer loop
      vertex  1.073607e+001  1.000000e+001 -6.235114e+001
      vertex  8.736068e+000  1.000000e+001 -8.619577e+001
      vertex  8.736068e+000  1.000000e+001 -6.380423e+001
    endloop
  endfacet
  facet normal  0.000000e+000  1.000000e+000  0.000000e+000
    outer loop
      vertex  8.736068e+000  1.000000e+001 -6.380423e+001
      vertex  8.736068e+000  1.000000e+001 -8.619577e+001
      vertex  6.263932e+000  1.000000e+001 -8.619577e+001
    endloop
  endfacet
  facet normal  0.000000e+000  1.000000e+000  0.000000e+000
    outer loop
      vertex  8.736068e+000  1.000000e+001 -6.380423e+001
      vertex  6.263932e+000  1.000000e+001 -8.619577e+001
      vertex  6.263932e+000  1.000000e+001 -6.380423e+001
    endloop
  endfacet
  facet normal  0.000000e+000  4.755513e-001 -8.796880e-001
    outer loop
      vertex  1.500000e+001  1.000768e+002  4.869469e+001
      vertex  1.500000e+001  6.120785e+001  2.768249e+001
      vertex  0.000000e+000  1.000768e+002  4.869469e+001
    endloop
  endfacet
  facet normal  0.000000e+000  4.755513e-001 -8.796880e-001
    outer loop
      vertex  0.000000e+000  1.000768e+002  4.869469e+001
      vertex  1.500000e+001  6.120785e+001  2.768249e+001
      vertex  0.000000e+000  6.120785e+001  2.768249e+001
    endloop
  endfacet
  facet normal -5.876728e-001  1.951385e-002 -8.088634e-001
    outer loop
      vertex  8.736068e+000  3.609319e-016 -5.619577e+001
      vertex  9.806355e+000  1.001121e+001 -5.673186e+001
      vertex  1.073607e+001  3.489590e-016 -5.764886e+001
    endloop
  endfacet
  facet normal -3.597631e-001 -1.149762e-002 -9.329728e-001
    outer loop
      vertex  8.736068e+000  3.609319e-016 -5.619577e+001
      vertex  7.984321e+000  1.002438e+001 -5.602943e+001
      vertex  9.806355e+000  1.001121e+001 -5.673186e+001
    endloop
  endfacet
  facet normal  0.000000e+000  1.659162e-002 -9.998623e-001
    outer loop
      vertex  7.984321e+000  1.002438e+001 -5.602943e+001
      vertex  8.736068e+000  3.609319e-016 -5.619577e+001
      vertex  6.263932e+000  3.609319e-016 -5.619577e+001
    endloop
  endfacet
  facet normal  1.248348e-001 -4.960309e-003 -9.921651e-001
    outer loop
      vertex  6.263932e+000  3.609319e-016 -5.619577e+001
      vertex  6.047277e+000  1.001924e+001 -5.627312e+001
      vertex  7.984321e+000  1.002438e+001 -5.602943e+001
    endloop
  endfacet
  facet normal -7.584126e-001 -1.073922e-002 -6.516862e-001
    outer loop
      vertex  9.806355e+000  1.001121e+001 -5.673186e+001
      vertex  1.107782e+001  1.000000e+001 -5.821137e+001
      vertex  1.073607e+001  3.489590e-016 -5.764886e+001
    endloop
  endfacet
  facet normal -9.730551e-001  2.033511e-002 -2.296743e-001
    outer loop
      vertex  1.073607e+001  3.489590e-016 -5.764886e+001
      vertex  1.107782e+001  1.000000e+001 -5.821137e+001
      vertex  1.150000e+001  1.000000e+001 -6.000000e+001
    endloop
  endfacet
  facet normal -9.510565e-001  -0.000000e+000 -3.090169e-001
    outer loop
      vertex  1.073607e+001  3.489590e-016 -5.764886e+001
      vertex  1.150000e+001  1.000000e+001 -6.000000e+001
      vertex  1.150000e+001  0.000000e+000 -6.000000e+001
    endloop
  endfacet
  facet normal  8.338363e-001 -2.554398e-003 -5.520061e-001
    outer loop
      vertex  3.922177e+000  1.000000e+001 -5.821137e+001
      vertex  4.456071e+000  1.000333e+001 -5.740491e+001
      vertex  4.263932e+000  3.489590e-016 -5.764886e+001
    endloop
  endfacet
  facet normal  5.795326e-001  8.741245e-003 -8.149022e-001
    outer loop
      vertex  4.263932e+000  3.489590e-016 -5.764886e+001
      vertex  4.456071e+000  1.000333e+001 -5.740491e+001
      vertex  6.047277e+000  1.001924e+001 -5.627312e+001
    endloop
  endfacet
  facet normal  5.877724e-001  6.464266e-003 -8.090005e-001
    outer loop
      vertex  4.263932e+000  3.489590e-016 -5.764886e+001
      vertex  6.047277e+000  1.001924e+001 -5.627312e+001
      vertex  6.263932e+000  3.609319e-016 -5.619577e+001
    endloop
  endfacet
  facet normal  9.730551e-001  2.033514e-002 -2.296742e-001
    outer loop
      vertex  3.922177e+000  1.000000e+001 -5.821137e+001
      vertex  4.263932e+000  3.489590e-016 -5.764886e+001
      vertex  3.500000e+000  1.000000e+001 -6.000000e+001
    endloop
  endfacet
  facet normal  9.510565e-001  0.000000e+000 -3.090169e-001
    outer loop
      vertex  3.500000e+000  1.000000e+001 -6.000000e+001
      vertex  4.263932e+000  3.489590e-016 -5.764886e+001
      vertex  3.500000e+000  0.000000e+000 -6.000000e+001
    endloop
  endfacet
  facet normal  6.907004e-003  9.970880e-001 -7.594498e-002
    outer loop
      vertex  7.984321e+000  1.002438e+001 -5.602943e+001
      vertex  6.047277e+000  1.001924e+001 -5.627312e+001
      vertex  1.500000e+001  1.069596e+001 -4.657416e+001
    endloop
  endfacet
  facet normal  0.000000e+000  9.982166e-001 -5.969813e-002
    outer loop
      vertex  0.000000e+000  1.000000e+001 -5.821137e+001
      vertex  0.000000e+000  1.069596e+001 -4.657416e+001
      vertex  1.500000e+001  1.069596e+001 -4.657416e+001
    endloop
  endfacet
  facet normal  2.710928e-002  9.951596e-001 -9.445832e-002
    outer loop
      vertex  0.000000e+000  1.000000e+001 -5.821137e+001
      vertex  1.500000e+001  1.069596e+001 -4.657416e+001
      vertex  6.047277e+000  1.001924e+001 -5.627312e+001
    endloop
  endfacet
  facet normal  2.409431e-003  9.998450e-001 -1.744201e-002
    outer loop
      vertex  0.000000e+000  1.000000e+001 -5.821137e+001
      vertex  6.047277e+000  1.001924e+001 -5.627312e+001
      vertex  4.456071e+000  1.000333e+001 -5.740491e+001
    endloop
  endfacet
  facet normal  0.000000e+000  9.999915e-001 -4.129401e-003
    outer loop
      vertex  0.000000e+000  1.000000e+001 -5.821137e+001
      vertex  4.456071e+000  1.000333e+001 -5.740491e+001
      vertex  3.922177e+000  1.000000e+001 -5.821137e+001
    endloop
  endfacet
  facet normal  0.000000e+000  7.917851e-001 -6.107997e-001
    outer loop
      vertex  1.500000e+001  2.690790e+001 -3.293794e+000
      vertex  0.000000e+000  3.402860e+001  5.936841e+000
      vertex  1.500000e+001  3.402860e+001  5.936841e+000
    endloop
  endfacet
  facet normal  0.000000e+000  7.133443e-001 -7.008137e-001
    outer loop
      vertex  1.500000e+001  3.402860e+001  5.936841e+000
      vertex  0.000000e+000  3.402860e+001  5.936841e+000
      vertex  0.000000e+000  4.219869e+001  1.425301e+001
    endloop
  endfacet
  facet normal  0.000000e+000  7.133443e-001 -7.008137e-001
    outer loop
      vertex  1.500000e+001  3.402860e+001  5.936841e+000
      vertex  0.000000e+000  4.219869e+001  1.425301e+001
      vertex  1.500000e+001  4.219869e+001  1.425301e+001
    endloop
  endfacet
  facet normal  0.000000e+000  6.247346e-001 -7.808372e-001
    outer loop
      vertex  1.500000e+001  4.219869e+001  1.425301e+001
      vertex  0.000000e+000  4.219869e+001  1.425301e+001
      vertex  0.000000e+000  5.130170e+001  2.153617e+001
    endloop
  endfacet
  facet normal  0.000000e+000  6.247346e-001 -7.808372e-001
    outer loop
      vertex  1.500000e+001  4.219869e+001  1.425301e+001
      vertex  0.000000e+000  5.130170e+001  2.153617e+001
      vertex  1.500000e+001  5.130170e+001  2.153617e+001
    endloop
  endfacet
  facet normal  0.000000e+000  5.272189e-001 -8.497295e-001
    outer loop
      vertex  1.500000e+001  5.130170e+001  2.153617e+001
      vertex  0.000000e+000  5.130170e+001  2.153617e+001
      vertex  0.000000e+000  6.120785e+001  2.768249e+001
    endloop
  endfacet
  facet normal  0.000000e+000  5.272189e-001 -8.497295e-001
    outer loop
      vertex  1.500000e+001  5.130170e+001  2.153617e+001
      vertex  0.000000e+000  6.120785e+001  2.768249e+001
      vertex  1.500000e+001  6.120785e+001  2.768249e+001
    endloop
  endfacet
  facet normal  0.000000e+000  7.917851e-001 -6.107997e-001
    outer loop
      vertex  0.000000e+000  3.402860e+001  5.936841e+000
      vertex  1.500000e+001  2.690790e+001 -3.293794e+000
      vertex  0.000000e+000  2.690790e+001 -3.293794e+000
    endloop
  endfacet
  facet normal  0.000000e+000  8.589387e-001 -5.120784e-001
    outer loop
      vertex  0.000000e+000  2.690790e+001 -3.293794e+000
      vertex  1.500000e+001  2.690790e+001 -3.293794e+000
      vertex  1.500000e+001  2.093808e+001 -1.330731e+001
    endloop
  endfacet
  facet normal  0.000000e+000  8.589387e-001 -5.120784e-001
    outer loop
      vertex  0.000000e+000  2.690790e+001 -3.293794e+000
      vertex  1.500000e+001  2.093808e+001 -1.330731e+001
      vertex  0.000000e+000  2.093808e+001 -1.330731e+001
    endloop
  endfacet
  facet normal  0.000000e+000  9.138476e-001 -4.060575e-001
    outer loop
      vertex  0.000000e+000  2.093808e+001 -1.330731e+001
      vertex  1.500000e+001  2.093808e+001 -1.330731e+001
      vertex  1.500000e+001  1.620426e+001 -2.396095e+001
    endloop
  endfacet
  facet normal  0.000000e+000  9.138476e-001 -4.060575e-001
    outer loop
      vertex  0.000000e+000  2.093808e+001 -1.330731e+001
      vertex  1.500000e+001  1.620426e+001 -2.396095e+001
      vertex  0.000000e+000  1.620426e+001 -2.396095e+001
    endloop
  endfacet
  facet normal  0.000000e+000  9.557292e-001 -2.942476e-001
    outer loop
      vertex  0.000000e+000  1.620426e+001 -2.396095e+001
      vertex  1.500000e+001  1.620426e+001 -2.396095e+001
      vertex  1.500000e+001  1.277392e+001 -3.510284e+001
    endloop
  endfacet
  facet normal  0.000000e+000  9.557292e-001 -2.942476e-001
    outer loop
      vertex  0.000000e+000  1.620426e+001 -2.396095e+001
      vertex  1.500000e+001  1.277392e+001 -3.510284e+001
      vertex  0.000000e+000  1.277392e+001 -3.510284e+001
    endloop
  endfacet
  facet normal  0.000000e+000  9.839865e-001 -1.782434e-001
    outer loop
      vertex  0.000000e+000  1.277392e+001 -3.510284e+001
      vertex  1.500000e+001  1.277392e+001 -3.510284e+001
      vertex  1.500000e+001  1.069596e+001 -4.657416e+001
    endloop
  endfacet
  facet normal  0.000000e+000  9.839865e-001 -1.782434e-001
    outer loop
      vertex  0.000000e+000  1.277392e+001 -3.510284e+001
      vertex  1.500000e+001  1.069596e+001 -4.657416e+001
      vertex  0.000000e+000  1.069596e+001 -4.657416e+001
    endloop
  endfacet
  facet normal  0.000000e+000  9.999713e-001 -7.576264e-003
    outer loop
      vertex  1.107782e+001  1.000000e+001 -5.821137e+001
      vertex  9.806355e+000  1.001121e+001 -5.673186e+001
      vertex  1.500000e+001  1.000000e+001 -5.821137e+001
    endloop
  endfacet
  facet normal -1.217932e-002  9.986590e-001 -5.032037e-002
    outer loop
      vertex  1.500000e+001  1.000000e+001 -5.821137e+001
      vertex  9.806355e+000  1.001121e+001 -5.673186e+001
      vertex  7.984321e+000  1.002438e+001 -5.602943e+001
    endloop
  endfacet
  facet normal -1.509571e-002  9.981027e-001 -5.969133e-002
    outer loop
      vertex  1.500000e+001  1.000000e+001 -5.821137e+001
      vertex  7.984321e+000  1.002438e+001 -5.602943e+001
      vertex  1.500000e+001  1.069596e+001 -4.657416e+001
    endloop
  endfacet
  facet normal -1.000000e+000  0.000000e+000  0.000000e+000
    outer loop
      vertex -1.500000e+001  0.000000e+000 -4.901912e+001
      vertex -1.500000e+001 -2.000000e+001 -4.901912e+001
      vertex -1.500000e+001  0.000000e+000 -4.201912e+001
    endloop
  endfacet
  facet normal -1.000000e+000  -0.000000e+000  0.000000e+000
    outer loop
      vertex -1.500000e+001  0.000000e+000 -4.201912e+001
      vertex -1.500000e+001 -2.000000e+001 -4.901912e+001
      vertex -1.500000e+001 -2.000000e+001 -4.201912e+001
    endloop
  endfacet
  facet normal  0.000000e+000 -1.000000e+000  0.000000e+000
    outer loop
      vertex -1.500000e+001 -2.000000e+001 -4.201912e+001
      vertex -1.500000e+001 -2.000000e+001 -4.901912e+001
      vertex  0.000000e+000 -2.000000e+001 -4.201912e+001
    endloop
  endfacet
  facet normal  0.000000e+000 -1.000000e+000  -0.000000e+000
    outer loop
      vertex  0.000000e+000 -2.000000e+001 -4.201912e+001
      vertex -1.500000e+001 -2.000000e+001 -4.901912e+001
      vertex  1.500000e+001 -2.000000e+001 -4.901912e+001
    endloop
  endfacet
  facet normal  0.000000e+000 -1.000000e+000  0.000000e+000
    outer loop
      vertex  0.000000e+000 -2.000000e+001 -4.201912e+001
      vertex  1.500000e+001 -2.000000e+001 -4.901912e+001
      vertex  1.500000e+001 -2.000000e+001 -4.201912e+001
    endloop
  endfacet
  facet normal  0.000000e+000  1.000000e+000  -0.000000e+000
    outer loop
      vertex  0.000000e+000  0.000000e+000 -4.201912e+001
      vertex  0.000000e+000  0.000000e+000 -4.901912e+001
      vertex -1.500000e+001  0.000000e+000 -4.201912e+001
    endloop
  endfacet
  facet normal  0.000000e+000  1.000000e+000  0.000000e+000
    outer loop
      vertex -1.500000e+001  0.000000e+000 -4.201912e+001
      vertex  0.000000e+000  0.000000e+000 -4.901912e+001
      vertex -1.500000e+001  0.000000e+000 -4.901912e+001
    endloop
  endfacet
  facet normal -5.815612e-016 -1.000000e+000  5.701888e-017
    outer loop
      vertex  1.150000e+001  0.000000e+000 -6.000000e+001
      vertex  1.073607e+001  3.102138e-016 -6.235114e+001
      vertex  8.736068e+000  1.137421e-016 -8.619577e+001
    endloop
  endfacet
  facet normal -1.595879e-023 -1.000000e+000  8.239660e-018
    outer loop
      vertex  6.263932e+000  1.137421e-016 -8.619577e+001
      vertex  6.263932e+000  2.982408e-016 -6.380423e+001
      vertex  4.263932e+000  3.102138e-016 -6.235114e+001
    endloop
  endfacet
  facet normal  5.815610e-016 -9.999999e-001  5.701886e-017
    outer loop
      vertex  3.500000e+000  0.000000e+000 -6.000000e+001
      vertex  6.263932e+000  1.137421e-016 -8.619577e+001
      vertex  4.263932e+000  3.102138e-016 -6.235114e+001
    endloop
  endfacet
  facet normal  2.800434e-017 -9.999999e-001 -2.584973e-017
    outer loop
      vertex  1.500000e+001  4.200651e-016 -4.901912e+001
      vertex  0.000000e+000  0.000000e+000 -4.901912e+001
      vertex  6.263932e+000  3.609319e-016 -5.619577e+001
    endloop
  endfacet
  facet normal  0.000000e+000 -1.000000e+000  8.239657e-018
    outer loop
      vertex  1.500000e+001  4.200651e-016 -4.901912e+001
      vertex  6.263932e+000  3.609319e-016 -5.619577e+001
      vertex  8.736068e+000  3.609319e-016 -5.619577e+001
    endloop
  endfacet
  facet normal -3.667687e-024 -1.000000e+000  8.239660e-018
    outer loop
      vertex  1.500000e+001  4.200651e-016 -4.901912e+001
      vertex  8.736068e+000  3.609319e-016 -5.619577e+001
      vertex  1.073607e+001  3.489590e-016 -5.764886e+001
    endloop
  endfacet
  facet normal -1.711580e-016 -1.000000e+000  9.280841e-017
    outer loop
      vertex  1.500000e+001  4.200651e-016 -4.901912e+001
      vertex  1.073607e+001  3.489590e-016 -5.764886e+001
      vertex  1.150000e+001  0.000000e+000 -6.000000e+001
    endloop
  endfacet
  facet normal  1.997711e-016 -1.000000e+000 -2.541997e-017
    outer loop
      vertex  1.500000e+001  4.200651e-016 -4.901912e+001
      vertex  1.150000e+001  0.000000e+000 -6.000000e+001
      vertex  8.736068e+000  1.137421e-016 -8.619577e+001
    endloop
  endfacet
  facet normal  8.246498e-024 -1.000000e+000  8.239659e-018
    outer loop
      vertex  1.500000e+001  4.200651e-016 -4.901912e+001
      vertex  8.736068e+000  1.137421e-016 -8.619577e+001
      vertex  1.073607e+001  1.017692e-016 -8.764886e+001
    endloop
  endfacet
  facet normal -8.050862e-017 -1.000000e+000  1.712616e-017
    outer loop
      vertex  1.500000e+001  4.200651e-016 -4.901912e+001
      vertex  1.073607e+001  1.017692e-016 -8.764886e+001
      vertex  1.150000e+001  0.000000e+000 -9.000000e+001
    endloop
  endfacet
  facet normal  2.354189e-017 -1.000000e+000  8.239659e-018
    outer loop
      vertex  1.500000e+001 -9.860761e-032 -1.000000e+002
      vertex  1.500000e+001  4.200651e-016 -4.901912e+001
      vertex  1.150000e+001  0.000000e+000 -9.000000e+001
    endloop
  endfacet
  facet normal -3.971686e-017 -1.000000e+000 -1.390090e-017
    outer loop
      vertex  1.500000e+001 -9.860761e-032 -1.000000e+002
      vertex  1.150000e+001  0.000000e+000 -9.000000e+001
      vertex  1.073607e+001  6.302399e-017 -9.235114e+001
    endloop
  endfacet
  facet normal -7.081242e-024 -1.000000e+000  8.239658e-018
    outer loop
      vertex  1.500000e+001 -9.860761e-032 -1.000000e+002
      vertex  1.073607e+001  6.302399e-017 -9.235114e+001
      vertex  8.736068e+000  5.105107e-017 -9.380423e+001
    endloop
  endfacet
  facet normal  0.000000e+000 -1.000000e+000  8.239664e-018
    outer loop
      vertex  1.500000e+001 -9.860761e-032 -1.000000e+002
      vertex  8.736068e+000  5.105107e-017 -9.380423e+001
      vertex  6.263932e+000  5.105107e-017 -9.380423e+001
    endloop
  endfacet
  facet normal  0.000000e+000 -1.000000e+000  8.239664e-018
    outer loop
      vertex  1.500000e+001 -9.860761e-032 -1.000000e+002
      vertex  6.263932e+000  5.105107e-017 -9.380423e+001
      vertex  0.000000e+000 -9.860761e-032 -1.000000e+002
    endloop
  endfacet
  facet normal  1.054895e-016 -1.000000e+000  9.009400e-018
    outer loop
      vertex  0.000000e+000  0.000000e+000 -4.901912e+001
      vertex  3.500000e+000  0.000000e+000 -9.000000e+001
      vertex  4.263932e+000  1.017692e-016 -8.764886e+001
    endloop
  endfacet
  facet normal  7.313976e-018 -1.000000e+000 -1.827165e-018
    outer loop
      vertex  0.000000e+000  0.000000e+000 -4.901912e+001
      vertex  4.263932e+000  1.017692e-016 -8.764886e+001
      vertex  6.263932e+000  1.137421e-016 -8.619577e+001
    endloop
  endfacet
  facet normal -2.036346e-017 -1.000000e+000 -6.490564e-018
    outer loop
      vertex  0.000000e+000  0.000000e+000 -4.901912e+001
      vertex  6.263932e+000  1.137421e-016 -8.619577e+001
      vertex  3.500000e+000  0.000000e+000 -6.000000e+001
    endloop
  endfacet
  facet normal  2.305908e-016 -1.000000e+000  7.349755e-017
    outer loop
      vertex  0.000000e+000  0.000000e+000 -4.901912e+001
      vertex  3.500000e+000  0.000000e+000 -6.000000e+001
      vertex  4.263932e+000  3.489590e-016 -5.764886e+001
    endloop
  endfacet
  facet normal  2.602350e-017 -1.000000e+000 -2.757866e-017
    outer loop
      vertex  0.000000e+000  0.000000e+000 -4.901912e+001
      vertex  4.263932e+000  3.489590e-016 -5.764886e+001
      vertex  6.263932e+000  3.609319e-016 -5.619577e+001
    endloop
  endfacet
  facet normal  6.773362e-024 -1.000000e+000  8.239658e-018
    outer loop
      vertex  0.000000e+000 -9.860761e-032 -1.000000e+002
      vertex  6.263932e+000  5.105107e-017 -9.380423e+001
      vertex  4.263932e+000  6.302399e-017 -9.235114e+001
    endloop
  endfacet
  facet normal  3.971686e-017 -1.000000e+000 -1.390090e-017
    outer loop
      vertex  0.000000e+000 -9.860761e-032 -1.000000e+002
      vertex  4.263932e+000  6.302399e-017 -9.235114e+001
      vertex  3.500000e+000  0.000000e+000 -9.000000e+001
    endloop
  endfacet
  facet normal  2.264730e-032 -1.000000e+000  1.934208e-033
    outer loop
      vertex  0.000000e+000 -9.860761e-032 -1.000000e+002
      vertex  3.500000e+000  0.000000e+000 -9.000000e+001
      vertex  0.000000e+000  0.000000e+000 -4.901912e+001
    endloop
  endfacet
  facet normal  0.000000e+000 -1.000000e+000  8.239661e-018
    outer loop
      vertex  6.263932e+000  2.982408e-016 -6.380423e+001
      vertex  6.263932e+000  1.137421e-016 -8.619577e+001
      vertex  8.736068e+000  2.982408e-016 -6.380423e+001
    endloop
  endfacet
  facet normal  0.000000e+000 -1.000000e+000  8.239661e-018
    outer loop
      vertex  8.736068e+000  2.982408e-016 -6.380423e+001
      vertex  6.263932e+000  1.137421e-016 -8.619577e+001
      vertex  8.736068e+000  1.137421e-016 -8.619577e+001
    endloop
  endfacet
  facet normal  1.891413e-023 -1.000000e+000  8.239660e-018
    outer loop
      vertex  8.736068e+000  2.982408e-016 -6.380423e+001
      vertex  8.736068e+000  1.137421e-016 -8.619577e+001
      vertex  1.073607e+001  3.102138e-016 -6.235114e+001
    endloop
  endfacet
  facet normal  0.000000e+000 -9.230224e-001  3.847460e-001
    outer loop
      vertex  1.500000e+001  0.000000e+000  5.961758e+000
      vertex  0.000000e+000  0.000000e+000  5.961758e+000
      vertex  1.500000e+001 -2.000000e+001 -4.201912e+001
    endloop
  endfacet
  facet normal  0.000000e+000 -9.230224e-001  3.847460e-001
    outer loop
      vertex  1.500000e+001 -2.000000e+001 -4.201912e+001
      vertex  0.000000e+000  0.000000e+000  5.961758e+000
      vertex  0.000000e+000 -2.000000e+001 -4.201912e+001
    endloop
  endfacet
  facet normal  5.877847e-001  0.000000e+000  8.090174e-001
    outer loop
      vertex  6.263932e+000  2.982408e-016 -6.380423e+001
      vertex  4.263932e+000  1.000000e+001 -6.235114e+001
      vertex  4.263932e+000  3.102138e-016 -6.235114e+001
    endloop
  endfacet
  facet normal  9.510565e-001  -0.000000e+000  3.090169e-001
    outer loop
      vertex  4.263932e+000  3.102138e-016 -6.235114e+001
      vertex  4.263932e+000  1.000000e+001 -6.235114e+001
      vertex  3.500000e+000  1.000000e+001 -6.000000e+001
    endloop
  endfacet
  facet normal  9.510565e-001  0.000000e+000  3.090169e-001
    outer loop
      vertex  4.263932e+000  3.102138e-016 -6.235114e+001
      vertex  3.500000e+000  1.000000e+001 -6.000000e+001
      vertex  3.500000e+000  0.000000e+000 -6.000000e+001
    endloop
  endfacet
  facet normal  5.877847e-001  -0.000000e+000  8.090174e-001
    outer loop
      vertex  4.263932e+000  1.000000e+001 -6.235114e+001
      vertex  6.263932e+000  2.982408e-016 -6.380423e+001
      vertex  6.263932e+000  1.000000e+001 -6.380423e+001
    endloop
  endfacet
  facet normal  0.000000e+000  0.000000e+000  1.000000e+000
    outer loop
      vertex  6.263932e+000  1.000000e+001 -6.380423e+001
      vertex  6.263932e+000  2.982408e-016 -6.380423e+001
      vertex  8.736068e+000  2.982408e-016 -6.380423e+001
    endloop
  endfacet
  facet normal  0.000000e+000  -0.000000e+000  1.000000e+000
    outer loop
      vertex  6.263932e+000  1.000000e+001 -6.380423e+001
      vertex  8.736068e+000  2.982408e-016 -6.380423e+001
      vertex  8.736068e+000  1.000000e+001 -6.380423e+001
    endloop
  endfacet
  facet normal -5.877847e-001  0.000000e+000  8.090174e-001
    outer loop
      vertex  8.736068e+000  1.000000e+001 -6.380423e+001
      vertex  8.736068e+000  2.982408e-016 -6.380423e+001
      vertex  1.073607e+001  3.102138e-016 -6.235114e+001
    endloop
  endfacet
  facet normal -5.877847e-001  0.000000e+000  8.090174e-001
    outer loop
      vertex  8.736068e+000  1.000000e+001 -6.380423e+001
      vertex  1.073607e+001  3.102138e-016 -6.235114e+001
      vertex  1.073607e+001  1.000000e+001 -6.235114e+001
    endloop
  endfacet
  facet normal -9.510565e-001  0.000000e+000  3.090169e-001
    outer loop
      vertex  1.073607e+001  1.000000e+001 -6.235114e+001
      vertex  1.073607e+001  3.102138e-016 -6.235114e+001
      vertex  1.150000e+001  0.000000e+000 -6.000000e+001
    endloop
  endfacet
  facet normal -9.510565e-001  0.000000e+000  3.090169e-001
    outer loop
      vertex  1.073607e+001  1.000000e+001 -6.235114e+001
      vertex  1.150000e+001  0.000000e+000 -6.000000e+001
      vertex  1.150000e+001  1.000000e+001 -6.000000e+001
    endloop
  endfacet
  facet normal -5.877857e-001  -0.000000e+000 -8.090167e-001
    outer loop
      vertex  8.736068e+000  1.137421e-016 -8.619577e+001
      vertex  1.073607e+001  1.000000e+001 -8.764886e+001
      vertex  1.073607e+001  1.017692e-016 -8.764886e+001
    endloop
  endfacet
  facet normal -9.510565e-001  0.000000e+000 -3.090169e-001
    outer loop
      vertex  1.073607e+001  1.017692e-016 -8.764886e+001
      vertex  1.073607e+001  1.000000e+001 -8.764886e+001
      vertex  1.150000e+001  1.000000e+001 -9.000000e+001
    endloop
  endfacet
  facet normal -9.510565e-001  -0.000000e+000 -3.090169e-001
    outer loop
      vertex  1.073607e+001  1.017692e-016 -8.764886e+001
      vertex  1.150000e+001  1.000000e+001 -9.000000e+001
      vertex  1.150000e+001  0.000000e+000 -9.000000e+001
    endloop
  endfacet
  facet normal -5.877857e-001  0.000000e+000 -8.090167e-001
    outer loop
      vertex  1.073607e+001  1.000000e+001 -8.764886e+001
      vertex  8.736068e+000  1.137421e-016 -8.619577e+001
      vertex  8.736068e+000  1.000000e+001 -8.619577e+001
    endloop
  endfacet
  facet normal  0.000000e+000  -0.000000e+000 -1.000000e+000
    outer loop
      vertex  8.736068e+000  1.000000e+001 -8.619577e+001
      vertex  8.736068e+000  1.137421e-016 -8.619577e+001
      vertex  6.263932e+000  1.137421e-016 -8.619577e+001
    endloop
  endfacet
  facet normal  0.000000e+000  0.000000e+000 -1.000000e+000
    outer loop
      vertex  8.736068e+000  1.000000e+001 -8.619577e+001
      vertex  6.263932e+000  1.137421e-016 -8.619577e+001
      vertex  6.263932e+000  1.000000e+001 -8.619577e+001
    endloop
  endfacet
  facet normal  5.877857e-001  0.000000e+000 -8.090167e-001
    outer loop
      vertex  6.263932e+000  1.000000e+001 -8.619577e+001
      vertex  6.263932e+000  1.137421e-016 -8.619577e+001
      vertex  4.263932e+000  1.017692e-016 -8.764886e+001
    endloop
  endfacet
  facet normal  5.877857e-001  0.000000e+000 -8.090167e-001
    outer loop
      vertex  6.263932e+000  1.000000e+001 -8.619577e+001
      vertex  4.263932e+000  1.017692e-016 -8.764886e+001
      vertex  4.263932e+000  1.000000e+001 -8.764886e+001
    endloop
  endfacet
  facet normal  9.510565e-001  0.000000e+000 -3.090169e-001
    outer loop
      vertex  4.263932e+000  1.000000e+001 -8.764886e+001
      vertex  4.263932e+000  1.017692e-016 -8.764886e+001
      vertex  3.500000e+000  0.000000e+000 -9.000000e+001
    endloop
  endfacet
  facet normal  9.510565e-001  0.000000e+000 -3.090169e-001
    outer loop
      vertex  4.263932e+000  1.000000e+001 -8.764886e+001
      vertex  3.500000e+000  0.000000e+000 -9.000000e+001
      vertex  3.500000e+000  1.000000e+001 -9.000000e+001
    endloop
  endfacet
  facet normal  5.877857e-001  0.000000e+000  8.090167e-001
    outer loop
      vertex  6.263932e+000  5.105107e-017 -9.380423e+001
      vertex  4.263932e+000  1.000000e+001 -9.235114e+001
      vertex  4.263932e+000  6.302399e-017 -9.235114e+001
    endloop
  endfacet
  facet normal  9.510565e-001  -0.000000e+000  3.090169e-001
    outer loop
      vertex  4.263932e+000  6.302399e-017 -9.235114e+001
      vertex  4.263932e+000  1.000000e+001 -9.235114e+001
      vertex  3.500000e+000  1.000000e+001 -9.000000e+001
    endloop
  endfacet
  facet normal  9.510565e-001  0.000000e+000  3.090169e-001
    outer loop
      vertex  4.263932e+000  6.302399e-017 -9.235114e+001
      vertex  3.500000e+000  1.000000e+001 -9.000000e+001
      vertex  3.500000e+000  0.000000e+000 -9.000000e+001
    endloop
  endfacet
  facet normal  5.877857e-001  -0.000000e+000  8.090167e-001
    outer loop
      vertex  4.263932e+000  1.000000e+001 -9.235114e+001
      vertex  6.263932e+000  5.105107e-017 -9.380423e+001
      vertex  6.263932e+000  1.000000e+001 -9.380423e+001
    endloop
  endfacet
  facet normal  0.000000e+000  0.000000e+000  1.000000e+000
    outer loop
      vertex  6.263932e+000  1.000000e+001 -9.380423e+001
      vertex  6.263932e+000  5.105107e-017 -9.380423e+001
      vertex  8.736068e+000  5.105107e-017 -9.380423e+001
    endloop
  endfacet
  facet normal  0.000000e+000  -0.000000e+000  1.000000e+000
    outer loop
      vertex  6.263932e+000  1.000000e+001 -9.380423e+001
      vertex  8.736068e+000  5.105107e-017 -9.380423e+001
      vertex  8.736068e+000  1.000000e+001 -9.380423e+001
    endloop
  endfacet
  facet normal -5.877857e-001  0.000000e+000  8.090167e-001
    outer loop
      vertex  8.736068e+000  1.000000e+001 -9.380423e+001
      vertex  8.736068e+000  5.105107e-017 -9.380423e+001
      vertex  1.073607e+001  6.302399e-017 -9.235114e+001
    endloop
  endfacet
  facet normal -5.877857e-001  0.000000e+000  8.090167e-001
    outer loop
      vertex  8.736068e+000  1.000000e+001 -9.380423e+001
      vertex  1.073607e+001  6.302399e-017 -9.235114e+001
      vertex  1.073607e+001  1.000000e+001 -9.235114e+001
    endloop
  endfacet
  facet normal -9.510565e-001  0.000000e+000  3.090169e-001
    outer loop
      vertex  1.073607e+001  1.000000e+001 -9.235114e+001
      vertex  1.073607e+001  6.302399e-017 -9.235114e+001
      vertex  1.150000e+001  0.000000e+000 -9.000000e+001
    endloop
  endfacet
  facet normal -9.510565e-001  0.000000e+000  3.090169e-001
    outer loop
      vertex  1.073607e+001  1.000000e+001 -9.235114e+001
      vertex  1.150000e+001  0.000000e+000 -9.000000e+001
      vertex  1.150000e+001  1.000000e+001 -9.000000e+001
    endloop
  endfacet
  facet normal  -0.000000e+000  0.000000e+000 -1.000000e+000
    outer loop
      vertex  0.000000e+000  1.000000e+001 -1.000000e+002
      vertex  1.500000e+001  1.000000e+001 -1.000000e+002
      vertex  0.000000e+000 -9.860761e-032 -1.000000e+002
    endloop
  endfacet
  facet normal  0.000000e+000  0.000000e+000 -1.000000e+000
    outer loop
      vertex  0.000000e+000 -9.860761e-032 -1.000000e+002
      vertex  1.500000e+001  1.000000e+001 -1.000000e+002
      vertex  1.500000e+001 -9.860761e-032 -1.000000e+002
    endloop
  endfacet
  facet normal  0.000000e+000  0.000000e+000  1.000000e+000
    outer loop
      vertex  1.500000e+001  5.898312e+001  6.937605e+001
      vertex  1.500000e+001  7.302995e+001  6.937605e+001
      vertex  0.000000e+000  5.898312e+001  6.937605e+001
    endloop
  endfacet
  facet normal  0.000000e+000  0.000000e+000  1.000000e+000
    outer loop
      vertex  0.000000e+000  5.898312e+001  6.937605e+001
      vertex  1.500000e+001  7.302995e+001  6.937605e+001
      vertex  0.000000e+000  7.302995e+001  6.937605e+001
    endloop
  endfacet
  facet normal  0.000000e+000  1.000000e+000  0.000000e+000
    outer loop
      vertex  0.000000e+000  7.302995e+001  5.634391e+001
      vertex  0.000000e+000  7.302995e+001  6.937605e+001
      vertex  1.500000e+001  7.302995e+001  5.634391e+001
    endloop
  endfacet
  facet normal  0.000000e+000  1.000000e+000  -0.000000e+000
    outer loop
      vertex  1.500000e+001  7.302995e+001  5.634391e+001
      vertex  0.000000e+000  7.302995e+001  6.937605e+001
      vertex  1.500000e+001  7.302995e+001  6.937605e+001
    endloop
  endfacet
  facet normal  0.000000e+000 -4.338844e-001  9.009686e-001
    outer loop
      vertex  0.000000e+000  8.097634e+001  5.000687e+001
      vertex  1.500000e+001  8.358263e+001  5.126200e+001
      vertex  0.000000e+000  8.358263e+001  5.126200e+001
    endloop
  endfacet
  facet normal  0.000000e+000 -7.818307e-001  6.234908e-001
    outer loop
      vertex  0.000000e+000  8.358263e+001  5.126200e+001
      vertex  1.500000e+001  8.358263e+001  5.126200e+001
      vertex  1.500000e+001  8.538625e+001  5.352366e+001
    endloop
  endfacet
  facet normal  0.000000e+000 -7.818307e-001  6.234908e-001
    outer loop
      vertex  0.000000e+000  8.358263e+001  5.126200e+001
      vertex  1.500000e+001  8.538625e+001  5.352366e+001
      vertex  0.000000e+000  8.538625e+001  5.352366e+001
    endloop
  endfacet
  facet normal  0.000000e+000 -9.749281e-001  2.225201e-001
    outer loop
      vertex  0.000000e+000  8.538625e+001  5.352366e+001
      vertex  1.500000e+001  8.538625e+001  5.352366e+001
      vertex  1.500000e+001  8.602995e+001  5.634391e+001
    endloop
  endfacet
  facet normal  0.000000e+000 -9.749281e-001  2.225201e-001
    outer loop
      vertex  0.000000e+000  8.538625e+001  5.352366e+001
      vertex  1.500000e+001  8.602995e+001  5.634391e+001
      vertex  0.000000e+000  8.602995e+001  5.634391e+001
    endloop
  endfacet
  facet normal  0.000000e+000 -4.338844e-001  9.009686e-001
    outer loop
      vertex  1.500000e+001  8.358263e+001  5.126200e+001
      vertex  0.000000e+000  8.097634e+001  5.000687e+001
      vertex  1.500000e+001  8.097634e+001  5.000687e+001
    endloop
  endfacet
  facet normal  0.000000e+000  0.000000e+000  1.000000e+000
    outer loop
      vertex  1.500000e+001  8.097634e+001  5.000687e+001
      vertex  0.000000e+000  8.097634e+001  5.000687e+001
      vertex  0.000000e+000  7.808356e+001  5.000687e+001
    endloop
  endfacet
  facet normal  0.000000e+000  0.000000e+000  1.000000e+000
    outer loop
      vertex  1.500000e+001  8.097634e+001  5.000687e+001
      vertex  0.000000e+000  7.808356e+001  5.000687e+001
      vertex  1.500000e+001  7.808356e+001  5.000687e+001
    endloop
  endfacet
  facet normal  0.000000e+000  4.338844e-001  9.009686e-001
    outer loop
      vertex  1.500000e+001  7.808356e+001  5.000687e+001
      vertex  0.000000e+000  7.808356e+001  5.000687e+001
      vertex  0.000000e+000  7.547727e+001  5.126200e+001
    endloop
  endfacet
  facet normal  -0.000000e+000  4.338844e-001  9.009686e-001
    outer loop
      vertex  1.500000e+001  7.808356e+001  5.000687e+001
      vertex  0.000000e+000  7.547727e+001  5.126200e+001
      vertex  1.500000e+001  7.547727e+001  5.126200e+001
    endloop
  endfacet
  facet normal  0.000000e+000  7.818307e-001  6.234908e-001
    outer loop
      vertex  1.500000e+001  7.547727e+001  5.126200e+001
      vertex  0.000000e+000  7.547727e+001  5.126200e+001
      vertex  0.000000e+000  7.367365e+001  5.352366e+001
    endloop
  endfacet
  facet normal  -0.000000e+000  7.818307e-001  6.234908e-001
    outer loop
      vertex  1.500000e+001  7.547727e+001  5.126200e+001
      vertex  0.000000e+000  7.367365e+001  5.352366e+001
      vertex  1.500000e+001  7.367365e+001  5.352366e+001
    endloop
  endfacet
  facet normal  0.000000e+000  9.749281e-001  2.225201e-001
    outer loop
      vertex  1.500000e+001  7.367365e+001  5.352366e+001
      vertex  0.000000e+000  7.367365e+001  5.352366e+001
      vertex  0.000000e+000  7.302995e+001  5.634391e+001
    endloop
  endfacet
  facet normal  -0.000000e+000  9.749281e-001  2.225201e-001
    outer loop
      vertex  1.500000e+001  7.367365e+001  5.352366e+001
      vertex  0.000000e+000  7.302995e+001  5.634391e+001
      vertex  1.500000e+001  7.302995e+001  5.634391e+001
    endloop
  endfacet
  facet normal  0.000000e+000 -1.000000e+000  0.000000e+000
    outer loop
      vertex  0.000000e+000  8.602995e+001  5.634391e+001
      vertex  1.500000e+001  8.602995e+001  5.634391e+001
      vertex  0.000000e+000  8.602995e+001  6.937605e+001
    endloop
  endfacet
  facet normal  0.000000e+000 -1.000000e+000  0.000000e+000
    outer loop
      vertex  0.000000e+000  8.602995e+001  6.937605e+001
      vertex  1.500000e+001  8.602995e+001  5.634391e+001
      vertex  1.500000e+001  8.602995e+001  6.937605e+001
    endloop
  endfacet
  facet normal  0.000000e+000  0.000000e+000  1.000000e+000
    outer loop
      vertex  1.500000e+001  8.602995e+001  6.937605e+001
      vertex  1.500000e+001  1.000768e+002  6.937605e+001
      vertex  0.000000e+000  8.602995e+001  6.937605e+001
    endloop
  endfacet
  facet normal  0.000000e+000  0.000000e+000  1.000000e+000
    outer loop
      vertex  0.000000e+000  8.602995e+001  6.937605e+001
      vertex  1.500000e+001  1.000768e+002  6.937605e+001
      vertex  0.000000e+000  1.000768e+002  6.937605e+001
    endloop
  endfacet
  facet normal  0.000000e+000  1.000000e+000  0.000000e+000
    outer loop
      vertex  1.500000e+001  1.000768e+002  4.869469e+001
      vertex  0.000000e+000  1.000768e+002  4.869469e+001
      vertex  1.500000e+001  1.000768e+002  6.937605e+001
    endloop
  endfacet
  facet normal  0.000000e+000  1.000000e+000  0.000000e+000
    outer loop
      vertex  1.500000e+001  1.000768e+002  6.937605e+001
      vertex  0.000000e+000  1.000768e+002  4.869469e+001
      vertex  0.000000e+000  1.000768e+002  6.937605e+001
    endloop
  endfacet
endsolid CATIA STL
