solid CATIA STL
  facet normal  7.724257e-001  0.000000e+000  6.351051e-001
    outer loop
      vertex  2.000000e+000  3.000000e+001  4.256757e+001
      vertex  0.000000e+000  3.000000e+001  4.500000e+001
      vertex  2.000000e+000  2.000000e+000  4.256757e+001
    endloop
  endfacet
  facet normal  7.724257e-001  0.000000e+000  6.351051e-001
    outer loop
      vertex  2.000000e+000  2.000000e+000  4.256757e+001
      vertex  0.000000e+000  3.000000e+001  4.500000e+001
      vertex  0.000000e+000  0.000000e+000  4.500000e+001
    endloop
  endfacet
  facet normal  7.724255e-001  5.810690e-007  6.351054e-001
    outer loop
      vertex  2.000000e+000  2.000000e+000  4.256757e+001
      vertex  0.000000e+000  0.000000e+000  4.500000e+001
      vertex  3.535556e+001  2.000000e+000  2.000000e+000
    endloop
  endfacet
  facet normal  7.724255e-001 -3.273966e-007  6.351054e-001
    outer loop
      vertex  3.535556e+001  2.000000e+000  2.000000e+000
      vertex  0.000000e+000  0.000000e+000  4.500000e+001
      vertex  3.700000e+001  0.000000e+000  0.000000e+000
    endloop
  endfacet
  facet normal  7.724257e-001  0.000000e+000  6.351053e-001
    outer loop
      vertex  3.535556e+001  2.000000e+000  2.000000e+000
      vertex  3.700000e+001  0.000000e+000  0.000000e+000
      vertex  3.535556e+001  1.180000e+002  2.000000e+000
    endloop
  endfacet
  facet normal  7.724257e-001  0.000000e+000  6.351052e-001
    outer loop
      vertex  3.535556e+001  1.180000e+002  2.000000e+000
      vertex  3.700000e+001  0.000000e+000  0.000000e+000
      vertex  3.700000e+001  1.200000e+002  0.000000e+000
    endloop
  endfacet
  facet normal  7.724255e-001  4.358018e-007  6.351054e-001
    outer loop
      vertex  3.535556e+001  1.180000e+002  2.000000e+000
      vertex  3.700000e+001  1.200000e+002  0.000000e+000
      vertex  2.000000e+000  1.180000e+002  4.256757e+001
    endloop
  endfacet
  facet normal  7.724255e-001 -5.238346e-007  6.351054e-001
    outer loop
      vertex  2.000000e+000  1.180000e+002  4.256757e+001
      vertex  3.700000e+001  1.200000e+002  0.000000e+000
      vertex  0.000000e+000  1.200000e+002  4.500000e+001
    endloop
  endfacet
  facet normal  7.724257e-001  0.000000e+000  6.351051e-001
    outer loop
      vertex  2.000000e+000  1.180000e+002  4.256757e+001
      vertex  0.000000e+000  1.200000e+002  4.500000e+001
      vertex  2.000000e+000  6.000000e+001  4.256757e+001
    endloop
  endfacet
  facet normal  7.724257e-001  0.000000e+000  6.351051e-001
    outer loop
      vertex  2.000000e+000  6.000000e+001  4.256757e+001
      vertex  0.000000e+000  1.200000e+002  4.500000e+001
      vertex  0.000000e+000  6.000000e+001  4.500000e+001
    endloop
  endfacet
  facet normal  0.000000e+000 -1.000000e+000  0.000000e+000
    outer loop
      vertex  0.000000e+000  0.000000e+000  4.500000e+001
      vertex  0.000000e+000  0.000000e+000  0.000000e+000
      vertex  3.700000e+001  0.000000e+000  0.000000e+000
    endloop
  endfacet
  facet normal  0.000000e+000  1.000000e+000  0.000000e+000
    outer loop
      vertex  3.700000e+001  1.200000e+002  0.000000e+000
      vertex  0.000000e+000  1.200000e+002  0.000000e+000
      vertex  0.000000e+000  1.200000e+002  4.500000e+001
    endloop
  endfacet
  facet normal  1.000000e+000  0.000000e+000  0.000000e+000
    outer loop
      vertex  2.000000e+000  2.000000e+000  2.000000e+000
      vertex  2.000000e+000  3.000000e+001  2.000000e+000
      vertex  2.000000e+000  2.000000e+000  4.256757e+001
    endloop
  endfacet
  facet normal  1.000000e+000  -0.000000e+000  0.000000e+000
    outer loop
      vertex  2.000000e+000  2.000000e+000  4.256757e+001
      vertex  2.000000e+000  3.000000e+001  2.000000e+000
      vertex  2.000000e+000  3.000000e+001  4.256757e+001
    endloop
  endfacet
  facet normal  1.000000e+000  0.000000e+000  0.000000e+000
    outer loop
      vertex  2.000000e+000  6.000000e+001  2.000000e+000
      vertex  2.000000e+000  1.180000e+002  2.000000e+000
      vertex  2.000000e+000  6.000000e+001  4.256757e+001
    endloop
  endfacet
  facet normal  1.000000e+000  -0.000000e+000  0.000000e+000
    outer loop
      vertex  2.000000e+000  6.000000e+001  4.256757e+001
      vertex  2.000000e+000  1.180000e+002  2.000000e+000
      vertex  2.000000e+000  1.180000e+002  4.256757e+001
    endloop
  endfacet
  facet normal  0.000000e+000  1.000000e+000  0.000000e+000
    outer loop
      vertex  0.000000e+000  3.000000e+001  4.500000e+001
      vertex  2.000000e+000  3.000000e+001  4.256757e+001
      vertex  0.000000e+000  3.000000e+001  2.000000e+000
    endloop
  endfacet
  facet normal  0.000000e+000  1.000000e+000  0.000000e+000
    outer loop
      vertex  0.000000e+000  3.000000e+001  2.000000e+000
      vertex  2.000000e+000  3.000000e+001  4.256757e+001
      vertex  2.000000e+000  3.000000e+001  2.000000e+000
    endloop
  endfacet
  facet normal  0.000000e+000 -1.000000e+000  0.000000e+000
    outer loop
      vertex  0.000000e+000  6.000000e+001  2.000000e+000
      vertex  2.000000e+000  6.000000e+001  2.000000e+000
      vertex  0.000000e+000  6.000000e+001  4.500000e+001
    endloop
  endfacet
  facet normal  0.000000e+000 -1.000000e+000  0.000000e+000
    outer loop
      vertex  0.000000e+000  6.000000e+001  4.500000e+001
      vertex  2.000000e+000  6.000000e+001  2.000000e+000
      vertex  2.000000e+000  6.000000e+001  4.256757e+001
    endloop
  endfacet
  facet normal  0.000000e+000  0.000000e+000  1.000000e+000
    outer loop
      vertex  2.000000e+000  3.000000e+001  2.000000e+000
      vertex  2.000000e+000  2.000000e+000  2.000000e+000
      vertex  3.535556e+001  2.000000e+000  2.000000e+000
    endloop
  endfacet
  facet normal  0.000000e+000  0.000000e+000  1.000000e+000
    outer loop
      vertex  2.000000e+000  3.000000e+001  2.000000e+000
      vertex  3.535556e+001  2.000000e+000  2.000000e+000
      vertex  2.000000e+000  6.000000e+001  2.000000e+000
    endloop
  endfacet
  facet normal  0.000000e+000  0.000000e+000  1.000000e+000
    outer loop
      vertex  2.000000e+000  3.000000e+001  2.000000e+000
      vertex  2.000000e+000  6.000000e+001  2.000000e+000
      vertex  0.000000e+000  6.000000e+001  2.000000e+000
    endloop
  endfacet
  facet normal  0.000000e+000  0.000000e+000  1.000000e+000
    outer loop
      vertex  2.000000e+000  3.000000e+001  2.000000e+000
      vertex  0.000000e+000  6.000000e+001  2.000000e+000
      vertex  0.000000e+000  3.000000e+001  2.000000e+000
    endloop
  endfacet
  facet normal  -0.000000e+000  0.000000e+000  1.000000e+000
    outer loop
      vertex  3.535556e+001  1.180000e+002  2.000000e+000
      vertex  2.000000e+000  1.180000e+002  2.000000e+000
      vertex  3.535556e+001  2.000000e+000  2.000000e+000
    endloop
  endfacet
  facet normal  0.000000e+000  0.000000e+000  1.000000e+000
    outer loop
      vertex  3.535556e+001  2.000000e+000  2.000000e+000
      vertex  2.000000e+000  1.180000e+002  2.000000e+000
      vertex  2.000000e+000  6.000000e+001  2.000000e+000
    endloop
  endfacet
  facet normal  0.000000e+000  1.000000e+000  0.000000e+000
    outer loop
      vertex  3.535556e+001  2.000000e+000  2.000000e+000
      vertex  2.000000e+000  2.000000e+000  2.000000e+000
      vertex  2.000000e+000  2.000000e+000  4.256757e+001
    endloop
  endfacet
  facet normal  0.000000e+000 -1.000000e+000  0.000000e+000
    outer loop
      vertex  2.000000e+000  1.180000e+002  4.256757e+001
      vertex  2.000000e+000  1.180000e+002  2.000000e+000
      vertex  3.535556e+001  1.180000e+002  2.000000e+000
    endloop
  endfacet
  facet normal -1.000000e+000  0.000000e+000  0.000000e+000
    outer loop
      vertex  0.000000e+000  1.200000e+002  0.000000e+000
      vertex  0.000000e+000  6.000000e+001  4.500000e+001
      vertex  0.000000e+000  1.200000e+002  4.500000e+001
    endloop
  endfacet
  facet normal -1.000000e+000  0.000000e+000  0.000000e+000
    outer loop
      vertex  0.000000e+000  6.000000e+001  4.500000e+001
      vertex  0.000000e+000  1.200000e+002  0.000000e+000
      vertex  0.000000e+000  6.000000e+001  2.000000e+000
    endloop
  endfacet
  facet normal -1.000000e+000  0.000000e+000  -0.000000e+000
    outer loop
      vertex  0.000000e+000  6.000000e+001  2.000000e+000
      vertex  0.000000e+000  1.200000e+002  0.000000e+000
      vertex  0.000000e+000  0.000000e+000  0.000000e+000
    endloop
  endfacet
  facet normal -1.000000e+000  0.000000e+000  0.000000e+000
    outer loop
      vertex  0.000000e+000  6.000000e+001  2.000000e+000
      vertex  0.000000e+000  0.000000e+000  0.000000e+000
      vertex  0.000000e+000  3.000000e+001  2.000000e+000
    endloop
  endfacet
  facet normal -1.000000e+000  -0.000000e+000  0.000000e+000
    outer loop
      vertex  0.000000e+000  3.000000e+001  2.000000e+000
      vertex  0.000000e+000  0.000000e+000  0.000000e+000
      vertex  0.000000e+000  0.000000e+000  4.500000e+001
    endloop
  endfacet
  facet normal -1.000000e+000  0.000000e+000  0.000000e+000
    outer loop
      vertex  0.000000e+000  3.000000e+001  2.000000e+000
      vertex  0.000000e+000  0.000000e+000  4.500000e+001
      vertex  0.000000e+000  3.000000e+001  4.500000e+001
    endloop
  endfacet
  facet normal  0.000000e+000  0.000000e+000 -1.000000e+000
    outer loop
      vertex  3.700000e+001  1.200000e+002  0.000000e+000
      vertex  3.700000e+001  0.000000e+000  0.000000e+000
      vertex  0.000000e+000  1.200000e+002  0.000000e+000
    endloop
  endfacet
  facet normal  0.000000e+000  0.000000e+000 -1.000000e+000
    outer loop
      vertex  0.000000e+000  1.200000e+002  0.000000e+000
      vertex  3.700000e+001  0.000000e+000  0.000000e+000
      vertex  0.000000e+000  0.000000e+000  0.000000e+000
    endloop
  endfacet
endsolid CATIA STL
